<mxfile host="app.diagrams.net" agent="Mozilla/5.0 (Windows NT 10.0; Win64; x64) AppleWebKit/537.36 (KHTML, like Gecko) Chrome/131.0.0.0 Safari/537.36" version="26.0.3">
  <diagram name="Page-1" id="fXvrnK46e0trJi2hnhpr">
    <mxGraphModel dx="4370" dy="2940" grid="1" gridSize="10" guides="1" tooltips="1" connect="1" arrows="1" fold="1" page="1" pageScale="1" pageWidth="850" pageHeight="1100" math="0" shadow="0">
      <root>
        <mxCell id="0" />
        <mxCell id="1" parent="0" />
        <mxCell id="FawlYmPph2QiOUmOqzMi-47" value="&lt;span style=&quot;border-bottom: 1px dotted&quot;&gt;Trainer ID&lt;/span&gt;" style="ellipse;whiteSpace=wrap;html=1;align=center;labelBackgroundColor=none;fillColor=#8AE6E6;" parent="1" vertex="1">
          <mxGeometry x="190" y="210" width="100" height="40" as="geometry" />
        </mxCell>
        <mxCell id="abX1jXWTfdIjCExrMVEX-55" value="Validity Period" style="ellipse;whiteSpace=wrap;html=1;align=center;labelBackgroundColor=none;fillColor=#8AE6E6;" parent="1" vertex="1">
          <mxGeometry x="-190" y="370" width="100" height="40" as="geometry" />
        </mxCell>
        <mxCell id="GdIdlJBfRTEdmfWBy-k_-1" value="Course" style="whiteSpace=wrap;html=1;align=center;labelBackgroundColor=none;fillColor=#FF66B3;" parent="1" vertex="1">
          <mxGeometry x="375" y="220" width="95" height="40" as="geometry" />
        </mxCell>
        <mxCell id="FawlYmPph2QiOUmOqzMi-3" value="Lead" style="shape=rhombus;perimeter=rhombusPerimeter;whiteSpace=wrap;html=1;align=center;labelBackgroundColor=none;fillColor=#33FF99;" parent="1" vertex="1">
          <mxGeometry x="130" y="290" width="120" height="60" as="geometry" />
        </mxCell>
        <mxCell id="FawlYmPph2QiOUmOqzMi-7" value="Certification" style="whiteSpace=wrap;html=1;align=center;labelBackgroundColor=none;fillColor=#FF66B3;" parent="1" vertex="1">
          <mxGeometry x="-40" y="300" width="100" height="40" as="geometry" />
        </mxCell>
        <mxCell id="FawlYmPph2QiOUmOqzMi-11" value="" style="endArrow=none;html=1;rounded=0;exitX=1;exitY=0.5;exitDx=0;exitDy=0;entryX=0;entryY=0.5;entryDx=0;entryDy=0;labelBackgroundColor=none;fontColor=default;" parent="1" source="FawlYmPph2QiOUmOqzMi-7" target="FawlYmPph2QiOUmOqzMi-3" edge="1">
          <mxGeometry width="50" height="50" relative="1" as="geometry">
            <mxPoint x="400" y="290" as="sourcePoint" />
            <mxPoint x="450" y="240" as="targetPoint" />
          </mxGeometry>
        </mxCell>
        <mxCell id="FawlYmPph2QiOUmOqzMi-12" value="" style="endArrow=none;html=1;rounded=0;exitX=0.5;exitY=0;exitDx=0;exitDy=0;entryX=0.25;entryY=1;entryDx=0;entryDy=0;labelBackgroundColor=none;fontColor=default;" parent="1" source="FawlYmPph2QiOUmOqzMi-13" target="GdIdlJBfRTEdmfWBy-k_-1" edge="1">
          <mxGeometry width="50" height="50" relative="1" as="geometry">
            <mxPoint x="290" y="310" as="sourcePoint" />
            <mxPoint x="410" y="270" as="targetPoint" />
          </mxGeometry>
        </mxCell>
        <mxCell id="FawlYmPph2QiOUmOqzMi-13" value="Have" style="shape=rhombus;perimeter=rhombusPerimeter;whiteSpace=wrap;html=1;align=center;labelBackgroundColor=none;fillColor=#33FF99;" parent="1" vertex="1">
          <mxGeometry x="350" y="350" width="100" height="60" as="geometry" />
        </mxCell>
        <mxCell id="FawlYmPph2QiOUmOqzMi-25" value="Module" style="whiteSpace=wrap;html=1;align=center;labelBackgroundColor=none;fillColor=#FF66B3;" parent="1" vertex="1">
          <mxGeometry x="325" y="480" width="100" height="40" as="geometry" />
        </mxCell>
        <mxCell id="FawlYmPph2QiOUmOqzMi-28" value="Attenda&lt;span style=&quot;background-color: transparent; color: light-dark(rgb(0, 0, 0), rgb(255, 255, 255));&quot;&gt;nce&lt;/span&gt;" style="whiteSpace=wrap;html=1;align=center;labelBackgroundColor=none;fillColor=#FF66B3;" parent="1" vertex="1">
          <mxGeometry x="510" y="-90" width="100" height="40" as="geometry" />
        </mxCell>
        <mxCell id="FawlYmPph2QiOUmOqzMi-34" value="Relationship" style="shape=rhombus;perimeter=rhombusPerimeter;whiteSpace=wrap;html=1;align=center;labelBackgroundColor=none;fillColor=#33FF99;" parent="1" vertex="1">
          <mxGeometry x="1150" y="10" width="120" height="60" as="geometry" />
        </mxCell>
        <mxCell id="FawlYmPph2QiOUmOqzMi-35" value="Offer" style="shape=rhombus;perimeter=rhombusPerimeter;whiteSpace=wrap;html=1;align=center;labelBackgroundColor=none;fillColor=#33FF99;" parent="1" vertex="1">
          <mxGeometry x="670" y="210" width="120" height="60" as="geometry" />
        </mxCell>
        <mxCell id="FawlYmPph2QiOUmOqzMi-36" value="Relationship" style="shape=rhombus;perimeter=rhombusPerimeter;whiteSpace=wrap;html=1;align=center;labelBackgroundColor=none;fillColor=#33FF99;" parent="1" vertex="1">
          <mxGeometry x="520" y="410" width="120" height="60" as="geometry" />
        </mxCell>
        <mxCell id="FawlYmPph2QiOUmOqzMi-37" value="Contains" style="shape=rhombus;perimeter=rhombusPerimeter;whiteSpace=wrap;html=1;align=center;labelBackgroundColor=none;fillColor=#33FF99;" parent="1" vertex="1">
          <mxGeometry x="300" y="580" width="100" height="60" as="geometry" />
        </mxCell>
        <mxCell id="FawlYmPph2QiOUmOqzMi-40" value="Tracks" style="shape=rhombus;perimeter=rhombusPerimeter;whiteSpace=wrap;html=1;align=center;labelBackgroundColor=none;fillColor=#33FF99;" parent="1" vertex="1">
          <mxGeometry x="620" y="20" width="125" height="60" as="geometry" />
        </mxCell>
        <mxCell id="FawlYmPph2QiOUmOqzMi-41" value="" style="edgeStyle=elbowEdgeStyle;fontSize=12;html=1;endArrow=ERoneToMany;rounded=0;exitX=0.5;exitY=0;exitDx=0;exitDy=0;elbow=vertical;labelBackgroundColor=none;fontColor=default;" parent="1" source="FawlYmPph2QiOUmOqzMi-40" target="FawlYmPph2QiOUmOqzMi-28" edge="1">
          <mxGeometry width="100" height="100" relative="1" as="geometry">
            <mxPoint x="470.00000000000045" y="-40" as="sourcePoint" />
            <mxPoint x="720" y="-10" as="targetPoint" />
          </mxGeometry>
        </mxCell>
        <mxCell id="FawlYmPph2QiOUmOqzMi-42" value="" style="endArrow=none;html=1;rounded=0;exitX=0.5;exitY=1;exitDx=0;exitDy=0;entryX=0.114;entryY=-0.004;entryDx=0;entryDy=0;entryPerimeter=0;labelBackgroundColor=none;fontColor=default;" parent="1" source="FawlYmPph2QiOUmOqzMi-52" target="GdIdlJBfRTEdmfWBy-k_-1" edge="1">
          <mxGeometry relative="1" as="geometry">
            <mxPoint x="410" y="30" as="sourcePoint" />
            <mxPoint x="418.75" y="230" as="targetPoint" />
          </mxGeometry>
        </mxCell>
        <mxCell id="FawlYmPph2QiOUmOqzMi-44" value="" style="fontSize=12;html=1;endArrow=ERoneToMany;rounded=0;exitX=0.5;exitY=1;exitDx=0;exitDy=0;entryX=0.75;entryY=0;entryDx=0;entryDy=0;labelBackgroundColor=none;fontColor=default;" parent="1" source="FawlYmPph2QiOUmOqzMi-13" target="FawlYmPph2QiOUmOqzMi-25" edge="1">
          <mxGeometry width="100" height="100" relative="1" as="geometry">
            <mxPoint x="300" y="310" as="sourcePoint" />
            <mxPoint x="140" y="420" as="targetPoint" />
          </mxGeometry>
        </mxCell>
        <mxCell id="FawlYmPph2QiOUmOqzMi-46" value="Course ID" style="ellipse;whiteSpace=wrap;html=1;align=center;fontStyle=4;labelBackgroundColor=none;fillColor=#8AE6E6;" parent="1" vertex="1">
          <mxGeometry x="190" y="90" width="100" height="40" as="geometry" />
        </mxCell>
        <mxCell id="FawlYmPph2QiOUmOqzMi-49" value="&lt;span style=&quot;border-bottom: 1px dotted&quot;&gt;Department ID&lt;/span&gt;" style="ellipse;whiteSpace=wrap;html=1;align=center;labelBackgroundColor=none;fillColor=#8AE6E6;" parent="1" vertex="1">
          <mxGeometry x="437.5" y="90" width="100" height="40" as="geometry" />
        </mxCell>
        <mxCell id="FawlYmPph2QiOUmOqzMi-50" value="Duration" style="ellipse;whiteSpace=wrap;html=1;align=center;labelBackgroundColor=none;fillColor=#8AE6E6;" parent="1" vertex="1">
          <mxGeometry x="410" y="30" width="90" height="40" as="geometry" />
        </mxCell>
        <mxCell id="FawlYmPph2QiOUmOqzMi-51" value="Description" style="ellipse;whiteSpace=wrap;html=1;align=center;labelBackgroundColor=none;fillColor=#8AE6E6;" parent="1" vertex="1">
          <mxGeometry x="325" width="100" height="40" as="geometry" />
        </mxCell>
        <mxCell id="FawlYmPph2QiOUmOqzMi-56" value="" style="endArrow=none;html=1;rounded=0;exitX=0.755;exitY=1.001;exitDx=0;exitDy=0;exitPerimeter=0;labelBackgroundColor=none;fontColor=default;" parent="1" source="FawlYmPph2QiOUmOqzMi-46" edge="1">
          <mxGeometry relative="1" as="geometry">
            <mxPoint x="290" y="170" as="sourcePoint" />
            <mxPoint x="380" y="220" as="targetPoint" />
          </mxGeometry>
        </mxCell>
        <mxCell id="FawlYmPph2QiOUmOqzMi-60" value="" style="endArrow=none;html=1;rounded=0;exitX=0.25;exitY=0;exitDx=0;exitDy=0;entryX=0.429;entryY=0.946;entryDx=0;entryDy=0;entryPerimeter=0;labelBackgroundColor=none;fontColor=default;" parent="1" source="GdIdlJBfRTEdmfWBy-k_-1" target="FawlYmPph2QiOUmOqzMi-51" edge="1">
          <mxGeometry relative="1" as="geometry">
            <mxPoint x="410" y="210" as="sourcePoint" />
            <mxPoint x="354" y="42" as="targetPoint" />
          </mxGeometry>
        </mxCell>
        <mxCell id="FawlYmPph2QiOUmOqzMi-61" value="" style="endArrow=none;html=1;rounded=0;entryX=0.291;entryY=0.872;entryDx=0;entryDy=0;entryPerimeter=0;exitX=0.389;exitY=0.029;exitDx=0;exitDy=0;exitPerimeter=0;labelBackgroundColor=none;fontColor=default;" parent="1" source="GdIdlJBfRTEdmfWBy-k_-1" target="FawlYmPph2QiOUmOqzMi-50" edge="1">
          <mxGeometry relative="1" as="geometry">
            <mxPoint x="390" y="160" as="sourcePoint" />
            <mxPoint x="550" y="160" as="targetPoint" />
          </mxGeometry>
        </mxCell>
        <mxCell id="FawlYmPph2QiOUmOqzMi-62" value="" style="endArrow=none;html=1;rounded=0;exitX=1.019;exitY=0.339;exitDx=0;exitDy=0;entryX=0;entryY=0;entryDx=0;entryDy=0;exitPerimeter=0;labelBackgroundColor=none;fontColor=default;" parent="1" source="FawlYmPph2QiOUmOqzMi-47" target="GdIdlJBfRTEdmfWBy-k_-1" edge="1">
          <mxGeometry relative="1" as="geometry">
            <mxPoint x="370" y="250" as="sourcePoint" />
            <mxPoint x="360" y="220" as="targetPoint" />
          </mxGeometry>
        </mxCell>
        <mxCell id="FawlYmPph2QiOUmOqzMi-64" value="" style="endArrow=none;html=1;rounded=0;exitX=1;exitY=0.5;exitDx=0;exitDy=0;labelBackgroundColor=none;fontColor=default;" parent="1" source="FawlYmPph2QiOUmOqzMi-54" edge="1">
          <mxGeometry relative="1" as="geometry">
            <mxPoint x="340" y="180" as="sourcePoint" />
            <mxPoint x="380" y="220" as="targetPoint" />
          </mxGeometry>
        </mxCell>
        <mxCell id="FawlYmPph2QiOUmOqzMi-65" value="" style="endArrow=none;html=1;rounded=0;exitX=0.25;exitY=1;exitDx=0;exitDy=0;entryX=0.5;entryY=0;entryDx=0;entryDy=0;labelBackgroundColor=none;fontColor=default;" parent="1" source="FawlYmPph2QiOUmOqzMi-25" target="FawlYmPph2QiOUmOqzMi-37" edge="1">
          <mxGeometry relative="1" as="geometry">
            <mxPoint x="190" y="520" as="sourcePoint" />
            <mxPoint x="350" y="520" as="targetPoint" />
          </mxGeometry>
        </mxCell>
        <mxCell id="FawlYmPph2QiOUmOqzMi-68" value="Lesson" style="whiteSpace=wrap;html=1;align=center;labelBackgroundColor=none;fillColor=#FF66B3;" parent="1" vertex="1">
          <mxGeometry x="300" y="720" width="100" height="40" as="geometry" />
        </mxCell>
        <mxCell id="FawlYmPph2QiOUmOqzMi-73" value="" style="fontSize=12;html=1;endArrow=ERoneToMany;rounded=0;entryX=0.5;entryY=0;entryDx=0;entryDy=0;exitX=0.5;exitY=1;exitDx=0;exitDy=0;labelBackgroundColor=none;fontColor=default;" parent="1" source="FawlYmPph2QiOUmOqzMi-37" target="FawlYmPph2QiOUmOqzMi-68" edge="1">
          <mxGeometry width="100" height="100" relative="1" as="geometry">
            <mxPoint x="280" y="560" as="sourcePoint" />
            <mxPoint x="190" y="630" as="targetPoint" />
          </mxGeometry>
        </mxCell>
        <mxCell id="FawlYmPph2QiOUmOqzMi-76" value="" style="endArrow=none;html=1;rounded=0;entryX=0.5;entryY=1;entryDx=0;entryDy=0;exitX=1;exitY=0.25;exitDx=0;exitDy=0;labelBackgroundColor=none;fontColor=default;" parent="1" source="GdIdlJBfRTEdmfWBy-k_-1" target="FawlYmPph2QiOUmOqzMi-77" edge="1">
          <mxGeometry relative="1" as="geometry">
            <mxPoint x="590" y="100" as="sourcePoint" />
            <mxPoint x="680" y="40" as="targetPoint" />
          </mxGeometry>
        </mxCell>
        <mxCell id="FawlYmPph2QiOUmOqzMi-77" value="Provide" style="shape=rhombus;perimeter=rhombusPerimeter;whiteSpace=wrap;html=1;align=center;labelBackgroundColor=none;fillColor=#33FF99;" parent="1" vertex="1">
          <mxGeometry x="640" y="130" width="120" height="60" as="geometry" />
        </mxCell>
        <mxCell id="FawlYmPph2QiOUmOqzMi-78" value="Feedback" style="whiteSpace=wrap;html=1;align=center;labelBackgroundColor=none;fillColor=#FF66B3;" parent="1" vertex="1">
          <mxGeometry x="840" y="20" width="100" height="40" as="geometry" />
        </mxCell>
        <mxCell id="FawlYmPph2QiOUmOqzMi-79" value="" style="edgeStyle=elbowEdgeStyle;fontSize=12;html=1;endArrow=ERoneToMany;rounded=0;exitX=0.5;exitY=0;exitDx=0;exitDy=0;entryX=0.424;entryY=0.978;entryDx=0;entryDy=0;elbow=vertical;entryPerimeter=0;labelBackgroundColor=none;fontColor=default;" parent="1" source="FawlYmPph2QiOUmOqzMi-77" target="FawlYmPph2QiOUmOqzMi-78" edge="1">
          <mxGeometry width="100" height="100" relative="1" as="geometry">
            <mxPoint x="610" y="20" as="sourcePoint" />
            <mxPoint x="710" y="-80" as="targetPoint" />
          </mxGeometry>
        </mxCell>
        <mxCell id="FawlYmPph2QiOUmOqzMi-80" value="Enroll" style="shape=rhombus;perimeter=rhombusPerimeter;whiteSpace=wrap;html=1;align=center;labelBackgroundColor=none;fillColor=#33FF99;" parent="1" vertex="1">
          <mxGeometry x="640" y="290" width="120" height="60" as="geometry" />
        </mxCell>
        <mxCell id="FawlYmPph2QiOUmOqzMi-81" value="" style="endArrow=none;html=1;rounded=0;exitX=1;exitY=0.75;exitDx=0;exitDy=0;entryX=0;entryY=0.5;entryDx=0;entryDy=0;labelBackgroundColor=none;fontColor=default;" parent="1" source="GdIdlJBfRTEdmfWBy-k_-1" target="FawlYmPph2QiOUmOqzMi-80" edge="1">
          <mxGeometry relative="1" as="geometry">
            <mxPoint x="450" y="160" as="sourcePoint" />
            <mxPoint x="610" y="160" as="targetPoint" />
          </mxGeometry>
        </mxCell>
        <mxCell id="FawlYmPph2QiOUmOqzMi-82" value="" style="edgeStyle=entityRelationEdgeStyle;fontSize=12;html=1;endArrow=ERoneToMany;rounded=0;labelBackgroundColor=none;fontColor=default;" parent="1" source="FawlYmPph2QiOUmOqzMi-80" target="FawlYmPph2QiOUmOqzMi-83" edge="1">
          <mxGeometry width="100" height="100" relative="1" as="geometry">
            <mxPoint x="530" y="380" as="sourcePoint" />
            <mxPoint x="630" y="280" as="targetPoint" />
          </mxGeometry>
        </mxCell>
        <mxCell id="FawlYmPph2QiOUmOqzMi-83" value="Enrollment" style="whiteSpace=wrap;html=1;align=center;labelBackgroundColor=none;fillColor=#FF66B3;" parent="1" vertex="1">
          <mxGeometry x="940.0000000000002" y="300" width="100" height="40" as="geometry" />
        </mxCell>
        <mxCell id="FawlYmPph2QiOUmOqzMi-85" value="" style="endArrow=none;html=1;rounded=0;entryX=1;entryY=0.5;entryDx=0;entryDy=0;exitX=0;exitY=0;exitDx=0;exitDy=0;labelBackgroundColor=none;fontColor=default;" parent="1" source="FawlYmPph2QiOUmOqzMi-89" target="FawlYmPph2QiOUmOqzMi-36" edge="1">
          <mxGeometry relative="1" as="geometry">
            <mxPoint x="590" y="650" as="sourcePoint" />
            <mxPoint x="750" y="650" as="targetPoint" />
          </mxGeometry>
        </mxCell>
        <mxCell id="FawlYmPph2QiOUmOqzMi-87" value="" style="edgeStyle=orthogonalEdgeStyle;fontSize=12;html=1;endArrow=ERoneToMany;rounded=0;exitX=0;exitY=0.5;exitDx=0;exitDy=0;entryX=0.75;entryY=1;entryDx=0;entryDy=0;labelBackgroundColor=none;fontColor=default;" parent="1" source="FawlYmPph2QiOUmOqzMi-36" target="GdIdlJBfRTEdmfWBy-k_-1" edge="1">
          <mxGeometry width="100" height="100" relative="1" as="geometry">
            <mxPoint x="540" y="470" as="sourcePoint" />
            <mxPoint x="580" y="600" as="targetPoint" />
            <Array as="points">
              <mxPoint x="460" y="440" />
              <mxPoint x="460" y="260" />
            </Array>
          </mxGeometry>
        </mxCell>
        <mxCell id="FawlYmPph2QiOUmOqzMi-89" value="Trainer" style="whiteSpace=wrap;html=1;align=center;labelBackgroundColor=none;fillColor=#FF66B3;" parent="1" vertex="1">
          <mxGeometry x="680" y="600" width="100" height="40" as="geometry" />
        </mxCell>
        <mxCell id="FawlYmPph2QiOUmOqzMi-90" value="Deportment" style="whiteSpace=wrap;html=1;align=center;labelBackgroundColor=none;fillColor=#FF66B3;" parent="1" vertex="1">
          <mxGeometry x="870" y="220" width="110" height="40" as="geometry" />
        </mxCell>
        <mxCell id="FawlYmPph2QiOUmOqzMi-91" value="" style="edgeStyle=entityRelationEdgeStyle;fontSize=12;html=1;endArrow=ERoneToMany;rounded=0;exitX=0;exitY=0.5;exitDx=0;exitDy=0;entryX=1;entryY=0.5;entryDx=0;entryDy=0;labelBackgroundColor=none;fontColor=default;" parent="1" source="FawlYmPph2QiOUmOqzMi-35" target="GdIdlJBfRTEdmfWBy-k_-1" edge="1">
          <mxGeometry width="100" height="100" relative="1" as="geometry">
            <mxPoint x="980.7407407407408" y="170" as="sourcePoint" />
            <mxPoint x="680" y="180" as="targetPoint" />
          </mxGeometry>
        </mxCell>
        <mxCell id="FawlYmPph2QiOUmOqzMi-92" value="" style="endArrow=none;html=1;rounded=0;exitX=1;exitY=0.5;exitDx=0;exitDy=0;entryX=0;entryY=0.5;entryDx=0;entryDy=0;labelBackgroundColor=none;fontColor=default;" parent="1" source="FawlYmPph2QiOUmOqzMi-35" target="FawlYmPph2QiOUmOqzMi-90" edge="1">
          <mxGeometry relative="1" as="geometry">
            <mxPoint x="1000" y="180" as="sourcePoint" />
            <mxPoint x="1160" y="180" as="targetPoint" />
          </mxGeometry>
        </mxCell>
        <mxCell id="FawlYmPph2QiOUmOqzMi-93" value="Description" style="ellipse;whiteSpace=wrap;html=1;align=center;labelBackgroundColor=none;fillColor=#8AE6E6;" parent="1" vertex="1">
          <mxGeometry x="1080" y="140" width="100" height="40" as="geometry" />
        </mxCell>
        <mxCell id="FawlYmPph2QiOUmOqzMi-94" value="Manager" style="ellipse;whiteSpace=wrap;html=1;align=center;labelBackgroundColor=none;fillColor=#8AE6E6;" parent="1" vertex="1">
          <mxGeometry x="1030" y="90" width="100" height="40" as="geometry" />
        </mxCell>
        <mxCell id="FawlYmPph2QiOUmOqzMi-95" value="Department Name" style="ellipse;whiteSpace=wrap;html=1;align=center;labelBackgroundColor=none;fillColor=#8AE6E6;" parent="1" vertex="1">
          <mxGeometry x="920" y="90" width="100" height="40" as="geometry" />
        </mxCell>
        <mxCell id="FawlYmPph2QiOUmOqzMi-96" value="Department ID" style="ellipse;whiteSpace=wrap;html=1;align=center;fontStyle=4;labelBackgroundColor=none;fillColor=#8AE6E6;" parent="1" vertex="1">
          <mxGeometry x="830" y="140" width="100" height="40" as="geometry" />
        </mxCell>
        <mxCell id="FawlYmPph2QiOUmOqzMi-97" value="" style="endArrow=none;html=1;rounded=0;entryX=0.75;entryY=0;entryDx=0;entryDy=0;exitX=0;exitY=1;exitDx=0;exitDy=0;labelBackgroundColor=none;fontColor=default;" parent="1" source="FawlYmPph2QiOUmOqzMi-94" target="FawlYmPph2QiOUmOqzMi-90" edge="1">
          <mxGeometry relative="1" as="geometry">
            <mxPoint x="1230.2" y="340" as="sourcePoint" />
            <mxPoint x="1220" y="260" as="targetPoint" />
          </mxGeometry>
        </mxCell>
        <mxCell id="FawlYmPph2QiOUmOqzMi-98" value="" style="endArrow=none;html=1;rounded=0;exitX=1;exitY=0;exitDx=0;exitDy=0;entryX=0.045;entryY=0.689;entryDx=0;entryDy=0;entryPerimeter=0;labelBackgroundColor=none;fontColor=default;" parent="1" source="FawlYmPph2QiOUmOqzMi-90" target="FawlYmPph2QiOUmOqzMi-93" edge="1">
          <mxGeometry relative="1" as="geometry">
            <mxPoint x="970" y="270" as="sourcePoint" />
            <mxPoint x="1130" y="270" as="targetPoint" />
          </mxGeometry>
        </mxCell>
        <mxCell id="FawlYmPph2QiOUmOqzMi-101" value="" style="endArrow=none;html=1;rounded=0;exitX=0.5;exitY=0;exitDx=0;exitDy=0;entryX=0.398;entryY=1.045;entryDx=0;entryDy=0;entryPerimeter=0;labelBackgroundColor=none;fontColor=default;" parent="1" source="FawlYmPph2QiOUmOqzMi-90" target="FawlYmPph2QiOUmOqzMi-95" edge="1">
          <mxGeometry relative="1" as="geometry">
            <mxPoint x="970" y="170" as="sourcePoint" />
            <mxPoint x="1130" y="170" as="targetPoint" />
          </mxGeometry>
        </mxCell>
        <mxCell id="FawlYmPph2QiOUmOqzMi-102" value="" style="endArrow=none;html=1;rounded=0;exitX=0.5;exitY=1;exitDx=0;exitDy=0;entryX=0.319;entryY=0.032;entryDx=0;entryDy=0;entryPerimeter=0;labelBackgroundColor=none;fontColor=default;" parent="1" source="FawlYmPph2QiOUmOqzMi-96" target="FawlYmPph2QiOUmOqzMi-90" edge="1">
          <mxGeometry relative="1" as="geometry">
            <mxPoint x="970" y="160" as="sourcePoint" />
            <mxPoint x="1130" y="160" as="targetPoint" />
          </mxGeometry>
        </mxCell>
        <mxCell id="FawlYmPph2QiOUmOqzMi-103" value="Employee" style="whiteSpace=wrap;html=1;align=center;labelBackgroundColor=none;fillColor=#FF66B3;" parent="1" vertex="1">
          <mxGeometry x="1380" y="110" width="100" height="40" as="geometry" />
        </mxCell>
        <mxCell id="FawlYmPph2QiOUmOqzMi-104" value="&lt;span style=&quot;border-bottom: 1px dotted&quot;&gt;Department ID&lt;/span&gt;" style="ellipse;whiteSpace=wrap;html=1;align=center;labelBackgroundColor=none;fillColor=#8AE6E6;" parent="1" vertex="1">
          <mxGeometry x="1590" y="160" width="100" height="40" as="geometry" />
        </mxCell>
        <mxCell id="FawlYmPph2QiOUmOqzMi-106" value="Name" style="ellipse;whiteSpace=wrap;html=1;align=center;labelBackgroundColor=none;fillColor=#8AE6E6;" parent="1" vertex="1">
          <mxGeometry x="1550" y="-10" width="100" height="40" as="geometry" />
        </mxCell>
        <mxCell id="FawlYmPph2QiOUmOqzMi-107" value="Role" style="ellipse;whiteSpace=wrap;html=1;align=center;labelBackgroundColor=none;fillColor=#8AE6E6;" parent="1" vertex="1">
          <mxGeometry x="1440" y="190" width="100" height="40" as="geometry" />
        </mxCell>
        <mxCell id="FawlYmPph2QiOUmOqzMi-108" value="Enrollment Status" style="ellipse;whiteSpace=wrap;html=1;align=center;labelBackgroundColor=none;fillColor=#8AE6E6;" parent="1" vertex="1">
          <mxGeometry x="1550" y="210" width="100" height="40" as="geometry" />
        </mxCell>
        <mxCell id="FawlYmPph2QiOUmOqzMi-109" value="Email" style="ellipse;whiteSpace=wrap;html=1;align=center;labelBackgroundColor=none;fillColor=#8AE6E6;" parent="1" vertex="1">
          <mxGeometry x="1590" y="40" width="100" height="40" as="geometry" />
        </mxCell>
        <mxCell id="FawlYmPph2QiOUmOqzMi-110" value="Position" style="ellipse;whiteSpace=wrap;html=1;align=center;labelBackgroundColor=none;fillColor=#8AE6E6;" parent="1" vertex="1">
          <mxGeometry x="1610" y="100" width="100" height="40" as="geometry" />
        </mxCell>
        <mxCell id="BEvxx8lWXbpntKvArGnV-1" value="" style="endArrow=none;html=1;rounded=0;fontSize=12;startSize=8;endSize=8;curved=1;exitX=0.5;exitY=1;exitDx=0;exitDy=0;entryX=0.5;entryY=0;entryDx=0;entryDy=0;labelBackgroundColor=none;fontColor=default;" parent="1" source="FawlYmPph2QiOUmOqzMi-105" target="FawlYmPph2QiOUmOqzMi-103" edge="1">
          <mxGeometry relative="1" as="geometry">
            <mxPoint x="900" y="500" as="sourcePoint" />
            <mxPoint x="1060" y="500" as="targetPoint" />
          </mxGeometry>
        </mxCell>
        <mxCell id="BEvxx8lWXbpntKvArGnV-2" value="" style="endArrow=none;html=1;rounded=0;fontSize=12;startSize=8;endSize=8;curved=1;entryX=0.212;entryY=1.008;entryDx=0;entryDy=0;exitX=1;exitY=0;exitDx=0;exitDy=0;entryPerimeter=0;labelBackgroundColor=none;fontColor=default;" parent="1" source="FawlYmPph2QiOUmOqzMi-103" target="FawlYmPph2QiOUmOqzMi-106" edge="1">
          <mxGeometry relative="1" as="geometry">
            <mxPoint x="900" y="500" as="sourcePoint" />
            <mxPoint x="1060" y="500" as="targetPoint" />
          </mxGeometry>
        </mxCell>
        <mxCell id="BEvxx8lWXbpntKvArGnV-3" value="" style="endArrow=none;html=1;rounded=0;fontSize=12;startSize=8;endSize=8;curved=1;entryX=0.5;entryY=1;entryDx=0;entryDy=0;labelBackgroundColor=none;fontColor=default;" parent="1" source="FawlYmPph2QiOUmOqzMi-107" target="FawlYmPph2QiOUmOqzMi-103" edge="1">
          <mxGeometry relative="1" as="geometry">
            <mxPoint x="900" y="500" as="sourcePoint" />
            <mxPoint x="1060" y="500" as="targetPoint" />
          </mxGeometry>
        </mxCell>
        <mxCell id="BEvxx8lWXbpntKvArGnV-4" value="" style="endArrow=none;html=1;rounded=0;fontSize=12;startSize=8;endSize=8;curved=1;entryX=0;entryY=0;entryDx=0;entryDy=0;exitX=1;exitY=1;exitDx=0;exitDy=0;labelBackgroundColor=none;fontColor=default;" parent="1" source="FawlYmPph2QiOUmOqzMi-103" target="FawlYmPph2QiOUmOqzMi-104" edge="1">
          <mxGeometry relative="1" as="geometry">
            <mxPoint x="1280" y="290" as="sourcePoint" />
            <mxPoint x="1440" y="290" as="targetPoint" />
          </mxGeometry>
        </mxCell>
        <mxCell id="BEvxx8lWXbpntKvArGnV-5" value="" style="endArrow=none;html=1;rounded=0;fontSize=12;startSize=8;endSize=8;curved=1;entryX=0;entryY=0.5;entryDx=0;entryDy=0;exitX=1;exitY=0.75;exitDx=0;exitDy=0;labelBackgroundColor=none;fontColor=default;" parent="1" source="FawlYmPph2QiOUmOqzMi-103" target="FawlYmPph2QiOUmOqzMi-110" edge="1">
          <mxGeometry relative="1" as="geometry">
            <mxPoint x="1280" y="290" as="sourcePoint" />
            <mxPoint x="1440" y="290" as="targetPoint" />
          </mxGeometry>
        </mxCell>
        <mxCell id="BEvxx8lWXbpntKvArGnV-6" value="" style="endArrow=none;html=1;rounded=0;fontSize=12;startSize=8;endSize=8;curved=1;entryX=0;entryY=0.5;entryDx=0;entryDy=0;exitX=1;exitY=0.5;exitDx=0;exitDy=0;labelBackgroundColor=none;fontColor=default;" parent="1" source="FawlYmPph2QiOUmOqzMi-103" target="FawlYmPph2QiOUmOqzMi-109" edge="1">
          <mxGeometry relative="1" as="geometry">
            <mxPoint x="1280" y="290" as="sourcePoint" />
            <mxPoint x="1440" y="290" as="targetPoint" />
          </mxGeometry>
        </mxCell>
        <mxCell id="BEvxx8lWXbpntKvArGnV-7" value="" style="endArrow=none;html=1;rounded=0;fontSize=12;startSize=8;endSize=8;curved=1;entryX=0.75;entryY=1;entryDx=0;entryDy=0;exitX=0.5;exitY=0;exitDx=0;exitDy=0;labelBackgroundColor=none;fontColor=default;" parent="1" source="FawlYmPph2QiOUmOqzMi-108" target="FawlYmPph2QiOUmOqzMi-103" edge="1">
          <mxGeometry relative="1" as="geometry">
            <mxPoint x="1280" y="290" as="sourcePoint" />
            <mxPoint x="1440" y="290" as="targetPoint" />
          </mxGeometry>
        </mxCell>
        <mxCell id="BEvxx8lWXbpntKvArGnV-11" value="Conducts" style="shape=rhombus;perimeter=rhombusPerimeter;whiteSpace=wrap;html=1;align=center;labelBackgroundColor=none;fillColor=#33FF99;" parent="1" vertex="1">
          <mxGeometry x="670" y="700" width="120" height="60" as="geometry" />
        </mxCell>
        <mxCell id="BEvxx8lWXbpntKvArGnV-12" value="" style="endArrow=none;html=1;rounded=0;fontSize=12;startSize=8;endSize=8;curved=1;exitX=0.5;exitY=1;exitDx=0;exitDy=0;entryX=0.5;entryY=0;entryDx=0;entryDy=0;labelBackgroundColor=none;fontColor=default;" parent="1" source="FawlYmPph2QiOUmOqzMi-89" target="BEvxx8lWXbpntKvArGnV-11" edge="1">
          <mxGeometry relative="1" as="geometry">
            <mxPoint x="1040" y="660" as="sourcePoint" />
            <mxPoint x="710" y="700" as="targetPoint" />
          </mxGeometry>
        </mxCell>
        <mxCell id="BEvxx8lWXbpntKvArGnV-20" value="Assessments" style="whiteSpace=wrap;html=1;align=center;labelBackgroundColor=none;fillColor=#FF66B3;" parent="1" vertex="1">
          <mxGeometry x="690" y="820" width="100" height="50" as="geometry" />
        </mxCell>
        <mxCell id="BEvxx8lWXbpntKvArGnV-23" value="" style="edgeStyle=orthogonalEdgeStyle;fontSize=12;html=1;endArrow=ERoneToMany;rounded=0;startSize=8;endSize=8;entryX=0;entryY=0.5;entryDx=0;entryDy=0;exitX=0.5;exitY=1;exitDx=0;exitDy=0;labelBackgroundColor=none;fontColor=default;" parent="1" source="BEvxx8lWXbpntKvArGnV-25" target="BEvxx8lWXbpntKvArGnV-20" edge="1">
          <mxGeometry width="100" height="100" relative="1" as="geometry">
            <mxPoint x="544.98" y="675" as="sourcePoint" />
            <mxPoint x="674.98" y="845" as="targetPoint" />
            <Array as="points">
              <mxPoint x="640" y="650" />
              <mxPoint x="640" y="845" />
            </Array>
          </mxGeometry>
        </mxCell>
        <mxCell id="BEvxx8lWXbpntKvArGnV-24" value="" style="endArrow=none;html=1;rounded=0;fontSize=12;startSize=8;endSize=8;curved=1;exitX=1;exitY=1;exitDx=0;exitDy=0;entryX=0.5;entryY=0;entryDx=0;entryDy=0;labelBackgroundColor=none;fontColor=default;" parent="1" source="FawlYmPph2QiOUmOqzMi-25" target="BEvxx8lWXbpntKvArGnV-25" edge="1">
          <mxGeometry relative="1" as="geometry">
            <mxPoint x="540" y="580" as="sourcePoint" />
            <mxPoint x="410" y="620" as="targetPoint" />
          </mxGeometry>
        </mxCell>
        <mxCell id="BEvxx8lWXbpntKvArGnV-25" value="Have" style="shape=rhombus;perimeter=rhombusPerimeter;whiteSpace=wrap;html=1;align=center;labelBackgroundColor=none;fillColor=#33FF99;" parent="1" vertex="1">
          <mxGeometry x="500" y="590" width="120" height="60" as="geometry" />
        </mxCell>
        <mxCell id="BEvxx8lWXbpntKvArGnV-26" value="" style="fontSize=12;html=1;endArrow=ERoneToMany;rounded=0;startSize=8;endSize=8;entryX=0.416;entryY=0.002;entryDx=0;entryDy=0;entryPerimeter=0;labelBackgroundColor=none;fontColor=default;" parent="1" source="BEvxx8lWXbpntKvArGnV-11" target="BEvxx8lWXbpntKvArGnV-20" edge="1">
          <mxGeometry width="100" height="100" relative="1" as="geometry">
            <mxPoint x="500" y="640" as="sourcePoint" />
            <mxPoint x="530" y="730" as="targetPoint" />
          </mxGeometry>
        </mxCell>
        <mxCell id="BEvxx8lWXbpntKvArGnV-29" value="" style="endArrow=none;html=1;rounded=0;fontSize=12;startSize=8;endSize=8;curved=1;exitX=1;exitY=0.25;exitDx=0;exitDy=0;entryX=0;entryY=0.5;entryDx=0;entryDy=0;labelBackgroundColor=none;fontColor=default;" parent="1" source="FawlYmPph2QiOUmOqzMi-90" target="BEvxx8lWXbpntKvArGnV-30" edge="1">
          <mxGeometry relative="1" as="geometry">
            <mxPoint x="1270" y="240" as="sourcePoint" />
            <mxPoint x="1210" y="130" as="targetPoint" />
          </mxGeometry>
        </mxCell>
        <mxCell id="BEvxx8lWXbpntKvArGnV-30" value="Belongs" style="shape=rhombus;perimeter=rhombusPerimeter;whiteSpace=wrap;html=1;align=center;labelBackgroundColor=none;fillColor=#33FF99;" parent="1" vertex="1">
          <mxGeometry x="1150" y="200" width="120" height="60" as="geometry" />
        </mxCell>
        <mxCell id="BEvxx8lWXbpntKvArGnV-31" value="" style="edgeStyle=orthogonalEdgeStyle;fontSize=12;html=1;endArrow=ERoneToMany;rounded=0;startSize=8;endSize=8;exitX=1;exitY=0.5;exitDx=0;exitDy=0;entryX=0;entryY=0.75;entryDx=0;entryDy=0;labelBackgroundColor=none;fontColor=default;" parent="1" source="BEvxx8lWXbpntKvArGnV-30" target="FawlYmPph2QiOUmOqzMi-103" edge="1">
          <mxGeometry width="100" height="100" relative="1" as="geometry">
            <mxPoint x="1360" y="290" as="sourcePoint" />
            <mxPoint x="1460" y="190" as="targetPoint" />
          </mxGeometry>
        </mxCell>
        <mxCell id="BEvxx8lWXbpntKvArGnV-32" value="" style="endArrow=none;html=1;rounded=0;fontSize=12;startSize=8;endSize=8;curved=1;exitX=0.5;exitY=0;exitDx=0;exitDy=0;entryX=0.5;entryY=1;entryDx=0;entryDy=0;labelBackgroundColor=none;fontColor=default;" parent="1" source="FawlYmPph2QiOUmOqzMi-89" target="BEvxx8lWXbpntKvArGnV-33" edge="1">
          <mxGeometry relative="1" as="geometry">
            <mxPoint x="1110" y="230" as="sourcePoint" />
            <mxPoint x="760" y="450" as="targetPoint" />
          </mxGeometry>
        </mxCell>
        <mxCell id="BEvxx8lWXbpntKvArGnV-33" value="Have" style="shape=rhombus;perimeter=rhombusPerimeter;whiteSpace=wrap;html=1;align=center;labelBackgroundColor=none;fillColor=#33FF99;" parent="1" vertex="1">
          <mxGeometry x="670" y="420" width="120" height="60" as="geometry" />
        </mxCell>
        <mxCell id="BEvxx8lWXbpntKvArGnV-34" value="" style="edgeStyle=elbowEdgeStyle;fontSize=12;html=1;endArrow=ERoneToMany;rounded=0;startSize=8;endSize=8;exitX=0.5;exitY=0;exitDx=0;exitDy=0;entryX=0.25;entryY=1;entryDx=0;entryDy=0;elbow=vertical;labelBackgroundColor=none;fontColor=default;" parent="1" edge="1">
          <mxGeometry width="100" height="100" relative="1" as="geometry">
            <mxPoint x="745" y="420.0000000000002" as="sourcePoint" />
            <mxPoint x="912.5" y="260" as="targetPoint" />
            <Array as="points">
              <mxPoint x="795" y="380" />
            </Array>
          </mxGeometry>
        </mxCell>
        <mxCell id="FawlYmPph2QiOUmOqzMi-105" value="Employee ID" style="ellipse;whiteSpace=wrap;html=1;align=center;fontStyle=4;labelBackgroundColor=none;fillColor=#8AE6E6;" parent="1" vertex="1">
          <mxGeometry x="1440" y="-10" width="100" height="40" as="geometry" />
        </mxCell>
        <mxCell id="BEvxx8lWXbpntKvArGnV-38" value="" style="endArrow=none;html=1;rounded=0;fontSize=12;startSize=8;endSize=8;curved=1;entryX=1;entryY=0.5;entryDx=0;entryDy=0;exitX=0;exitY=0.5;exitDx=0;exitDy=0;labelBackgroundColor=none;fontColor=default;" parent="1" source="FawlYmPph2QiOUmOqzMi-103" target="FawlYmPph2QiOUmOqzMi-34" edge="1">
          <mxGeometry relative="1" as="geometry">
            <mxPoint x="1380" y="130" as="sourcePoint" />
            <mxPoint x="2050" y="-160" as="targetPoint" />
          </mxGeometry>
        </mxCell>
        <mxCell id="BEvxx8lWXbpntKvArGnV-39" value="&lt;span style=&quot;border-bottom: 1px dotted&quot;&gt;Course ID&lt;/span&gt;" style="ellipse;whiteSpace=wrap;html=1;align=center;labelBackgroundColor=none;fillColor=#8AE6E6;" parent="1" vertex="1">
          <mxGeometry x="980" y="-110" width="100" height="40" as="geometry" />
        </mxCell>
        <mxCell id="BEvxx8lWXbpntKvArGnV-40" value="&lt;span style=&quot;border-bottom: 1px dotted&quot;&gt;Employee ID&lt;/span&gt;" style="ellipse;whiteSpace=wrap;html=1;align=center;labelBackgroundColor=none;fillColor=#8AE6E6;" parent="1" vertex="1">
          <mxGeometry x="990" y="-60" width="100" height="40" as="geometry" />
        </mxCell>
        <mxCell id="BEvxx8lWXbpntKvArGnV-41" value="Attribute" style="ellipse;whiteSpace=wrap;html=1;align=center;labelBackgroundColor=none;fillColor=#8AE6E6;" parent="1" vertex="1">
          <mxGeometry x="890" y="-140" width="100" height="40" as="geometry" />
        </mxCell>
        <mxCell id="BEvxx8lWXbpntKvArGnV-42" value="Attribute" style="ellipse;whiteSpace=wrap;html=1;align=center;labelBackgroundColor=none;fillColor=#8AE6E6;" parent="1" vertex="1">
          <mxGeometry x="790" y="-120" width="100" height="40" as="geometry" />
        </mxCell>
        <mxCell id="BEvxx8lWXbpntKvArGnV-43" value="Feedback ID" style="ellipse;whiteSpace=wrap;html=1;align=center;fontStyle=4;labelBackgroundColor=none;fillColor=#8AE6E6;" parent="1" vertex="1">
          <mxGeometry x="730" y="-70" width="100" height="40" as="geometry" />
        </mxCell>
        <mxCell id="BEvxx8lWXbpntKvArGnV-44" value="" style="endArrow=none;html=1;rounded=0;fontSize=12;startSize=8;endSize=8;curved=1;exitX=0.636;exitY=-0.064;exitDx=0;exitDy=0;entryX=0.336;entryY=1.073;entryDx=0;entryDy=0;exitPerimeter=0;entryPerimeter=0;labelBackgroundColor=none;fontColor=default;" parent="1" source="FawlYmPph2QiOUmOqzMi-78" target="BEvxx8lWXbpntKvArGnV-41" edge="1">
          <mxGeometry relative="1" as="geometry">
            <mxPoint x="930" y="-120" as="sourcePoint" />
            <mxPoint x="1100" y="-110" as="targetPoint" />
          </mxGeometry>
        </mxCell>
        <mxCell id="BEvxx8lWXbpntKvArGnV-46" value="" style="endArrow=none;html=1;rounded=0;fontSize=12;startSize=8;endSize=8;curved=1;exitX=1;exitY=0;exitDx=0;exitDy=0;entryX=0.082;entryY=0.8;entryDx=0;entryDy=0;entryPerimeter=0;labelBackgroundColor=none;fontColor=default;" parent="1" source="FawlYmPph2QiOUmOqzMi-78" target="BEvxx8lWXbpntKvArGnV-40" edge="1">
          <mxGeometry relative="1" as="geometry">
            <mxPoint x="930" y="-180" as="sourcePoint" />
            <mxPoint x="1090" y="-180" as="targetPoint" />
          </mxGeometry>
        </mxCell>
        <mxCell id="BEvxx8lWXbpntKvArGnV-47" value="" style="endArrow=none;html=1;rounded=0;fontSize=12;startSize=8;endSize=8;curved=1;exitX=0.5;exitY=1;exitDx=0;exitDy=0;entryX=0.5;entryY=0;entryDx=0;entryDy=0;labelBackgroundColor=none;fontColor=default;" parent="1" source="BEvxx8lWXbpntKvArGnV-42" target="FawlYmPph2QiOUmOqzMi-78" edge="1">
          <mxGeometry relative="1" as="geometry">
            <mxPoint x="930" y="-180" as="sourcePoint" />
            <mxPoint x="900" y="-20" as="targetPoint" />
          </mxGeometry>
        </mxCell>
        <mxCell id="BEvxx8lWXbpntKvArGnV-48" value="" style="endArrow=none;html=1;rounded=0;fontSize=12;startSize=8;endSize=8;curved=1;exitX=0.701;exitY=1.012;exitDx=0;exitDy=0;exitPerimeter=0;entryX=0.25;entryY=0;entryDx=0;entryDy=0;labelBackgroundColor=none;fontColor=default;" parent="1" source="BEvxx8lWXbpntKvArGnV-43" target="FawlYmPph2QiOUmOqzMi-78" edge="1">
          <mxGeometry relative="1" as="geometry">
            <mxPoint x="930" y="-180" as="sourcePoint" />
            <mxPoint x="870" y="-10" as="targetPoint" />
          </mxGeometry>
        </mxCell>
        <mxCell id="Y-POOmvSdZDfr7HTxGL3-1" value="" style="edgeStyle=entityRelationEdgeStyle;fontSize=12;html=1;endArrow=ERoneToMany;rounded=0;startSize=8;endSize=8;curved=1;exitX=0;exitY=0.5;exitDx=0;exitDy=0;entryX=1;entryY=0.5;entryDx=0;entryDy=0;labelBackgroundColor=none;fontColor=default;" parent="1" source="FawlYmPph2QiOUmOqzMi-34" target="FawlYmPph2QiOUmOqzMi-78" edge="1">
          <mxGeometry width="100" height="100" relative="1" as="geometry">
            <mxPoint x="1220" y="340" as="sourcePoint" />
            <mxPoint x="1090" y="-70" as="targetPoint" />
          </mxGeometry>
        </mxCell>
        <mxCell id="Y-POOmvSdZDfr7HTxGL3-2" value="Attendance ID&amp;nbsp;" style="ellipse;whiteSpace=wrap;html=1;align=center;fontStyle=4;labelBackgroundColor=none;fillColor=#8AE6E6;" parent="1" vertex="1">
          <mxGeometry x="360" y="-150" width="100" height="40" as="geometry" />
        </mxCell>
        <mxCell id="Y-POOmvSdZDfr7HTxGL3-3" value="Status" style="ellipse;whiteSpace=wrap;html=1;align=center;labelBackgroundColor=none;fillColor=#8AE6E6;" parent="1" vertex="1">
          <mxGeometry x="600" y="-220" width="100" height="40" as="geometry" />
        </mxCell>
        <mxCell id="Y-POOmvSdZDfr7HTxGL3-4" value="Session Date" style="ellipse;whiteSpace=wrap;html=1;align=center;labelBackgroundColor=none;fillColor=#8AE6E6;" parent="1" vertex="1">
          <mxGeometry x="560" y="-270" width="100" height="40" as="geometry" />
        </mxCell>
        <mxCell id="Y-POOmvSdZDfr7HTxGL3-5" value="&lt;span style=&quot;border-bottom: 1px dotted&quot;&gt;Course ID&lt;/span&gt;" style="ellipse;whiteSpace=wrap;html=1;align=center;labelBackgroundColor=none;fillColor=#8AE6E6;" parent="1" vertex="1">
          <mxGeometry x="450" y="-260" width="100" height="40" as="geometry" />
        </mxCell>
        <mxCell id="Y-POOmvSdZDfr7HTxGL3-6" value="&lt;span style=&quot;border-bottom: 1px dotted&quot;&gt;Employee ID&lt;/span&gt;" style="ellipse;whiteSpace=wrap;html=1;align=center;labelBackgroundColor=none;fillColor=#8AE6E6;direction=south;" parent="1" vertex="1">
          <mxGeometry x="350" y="-220" width="100" height="50" as="geometry" />
        </mxCell>
        <mxCell id="Y-POOmvSdZDfr7HTxGL3-7" value="" style="endArrow=none;html=1;rounded=0;fontSize=12;startSize=8;endSize=8;curved=1;exitX=1;exitY=0;exitDx=0;exitDy=0;entryX=0.3;entryY=0;entryDx=0;entryDy=0;entryPerimeter=0;labelBackgroundColor=none;fontColor=default;" parent="1" source="Y-POOmvSdZDfr7HTxGL3-6" target="FawlYmPph2QiOUmOqzMi-28" edge="1">
          <mxGeometry relative="1" as="geometry">
            <mxPoint x="540" y="-140" as="sourcePoint" />
            <mxPoint x="700" y="-140" as="targetPoint" />
          </mxGeometry>
        </mxCell>
        <mxCell id="Y-POOmvSdZDfr7HTxGL3-8" value="" style="endArrow=none;html=1;rounded=0;fontSize=12;startSize=8;endSize=8;curved=1;entryX=0.976;entryY=0.668;entryDx=0;entryDy=0;entryPerimeter=0;exitX=0;exitY=0;exitDx=0;exitDy=0;labelBackgroundColor=none;fontColor=default;" parent="1" source="FawlYmPph2QiOUmOqzMi-28" target="Y-POOmvSdZDfr7HTxGL3-2" edge="1">
          <mxGeometry relative="1" as="geometry">
            <mxPoint x="500" y="-140" as="sourcePoint" />
            <mxPoint x="660" y="-140" as="targetPoint" />
          </mxGeometry>
        </mxCell>
        <mxCell id="Y-POOmvSdZDfr7HTxGL3-10" value="" style="endArrow=none;html=1;rounded=0;fontSize=12;startSize=8;endSize=8;curved=1;entryX=0.5;entryY=1;entryDx=0;entryDy=0;exitX=0.5;exitY=0;exitDx=0;exitDy=0;labelBackgroundColor=none;fontColor=default;" parent="1" source="FawlYmPph2QiOUmOqzMi-28" target="Y-POOmvSdZDfr7HTxGL3-5" edge="1">
          <mxGeometry relative="1" as="geometry">
            <mxPoint x="635" y="-70" as="sourcePoint" />
            <mxPoint x="660" y="-140" as="targetPoint" />
          </mxGeometry>
        </mxCell>
        <mxCell id="Y-POOmvSdZDfr7HTxGL3-11" value="" style="endArrow=none;html=1;rounded=0;fontSize=12;startSize=8;endSize=8;curved=1;entryX=0;entryY=1;entryDx=0;entryDy=0;exitX=0.75;exitY=0;exitDx=0;exitDy=0;labelBackgroundColor=none;fontColor=default;" parent="1" source="FawlYmPph2QiOUmOqzMi-28" target="Y-POOmvSdZDfr7HTxGL3-3" edge="1">
          <mxGeometry relative="1" as="geometry">
            <mxPoint x="500" y="-140" as="sourcePoint" />
            <mxPoint x="660" y="-140" as="targetPoint" />
          </mxGeometry>
        </mxCell>
        <mxCell id="Y-POOmvSdZDfr7HTxGL3-12" value="" style="endArrow=none;html=1;rounded=0;fontSize=12;startSize=8;endSize=8;curved=1;entryX=0.226;entryY=0.954;entryDx=0;entryDy=0;entryPerimeter=0;exitX=0.5;exitY=0;exitDx=0;exitDy=0;labelBackgroundColor=none;fontColor=default;" parent="1" source="FawlYmPph2QiOUmOqzMi-28" target="Y-POOmvSdZDfr7HTxGL3-4" edge="1">
          <mxGeometry relative="1" as="geometry">
            <mxPoint x="570" y="-100" as="sourcePoint" />
            <mxPoint x="660" y="-140" as="targetPoint" />
          </mxGeometry>
        </mxCell>
        <mxCell id="Y-POOmvSdZDfr7HTxGL3-13" value="Enrollment ID" style="ellipse;whiteSpace=wrap;html=1;align=center;fontStyle=4;labelBackgroundColor=none;fillColor=#8AE6E6;" parent="1" vertex="1">
          <mxGeometry x="1050" y="410" width="100" height="40" as="geometry" />
        </mxCell>
        <mxCell id="Y-POOmvSdZDfr7HTxGL3-16" value="Enrollment Date" style="ellipse;whiteSpace=wrap;html=1;align=center;labelBackgroundColor=none;fillColor=#8AE6E6;" parent="1" vertex="1">
          <mxGeometry x="1160" y="270" width="100" height="40" as="geometry" />
        </mxCell>
        <mxCell id="Y-POOmvSdZDfr7HTxGL3-20" value="" style="endArrow=none;html=1;rounded=0;fontSize=12;startSize=8;endSize=8;curved=1;entryX=0.338;entryY=-0.069;entryDx=0;entryDy=0;exitX=1;exitY=1;exitDx=0;exitDy=0;entryPerimeter=0;labelBackgroundColor=none;fontColor=default;" parent="1" source="FawlYmPph2QiOUmOqzMi-83" target="Y-POOmvSdZDfr7HTxGL3-13" edge="1">
          <mxGeometry relative="1" as="geometry">
            <mxPoint x="970" y="370" as="sourcePoint" />
            <mxPoint x="810" y="490" as="targetPoint" />
          </mxGeometry>
        </mxCell>
        <mxCell id="Y-POOmvSdZDfr7HTxGL3-21" value="&lt;span style=&quot;border-bottom: 1px dotted&quot;&gt;Employee ID&lt;/span&gt;" style="ellipse;whiteSpace=wrap;html=1;align=center;labelBackgroundColor=none;fillColor=#8AE6E6;" parent="1" vertex="1">
          <mxGeometry x="1160" y="390" width="100" height="40" as="geometry" />
        </mxCell>
        <mxCell id="Y-POOmvSdZDfr7HTxGL3-22" value="" style="endArrow=none;html=1;rounded=0;fontSize=12;startSize=8;endSize=8;curved=1;entryX=0.074;entryY=0.24;entryDx=0;entryDy=0;exitX=1;exitY=0.75;exitDx=0;exitDy=0;entryPerimeter=0;labelBackgroundColor=none;fontColor=default;" parent="1" source="FawlYmPph2QiOUmOqzMi-83" target="Y-POOmvSdZDfr7HTxGL3-21" edge="1">
          <mxGeometry relative="1" as="geometry">
            <mxPoint x="650" y="490" as="sourcePoint" />
            <mxPoint x="810" y="490" as="targetPoint" />
          </mxGeometry>
        </mxCell>
        <mxCell id="Y-POOmvSdZDfr7HTxGL3-23" value="" style="endArrow=none;html=1;rounded=0;fontSize=12;startSize=8;endSize=8;curved=1;exitX=1;exitY=0.75;exitDx=0;exitDy=0;labelBackgroundColor=none;fontColor=default;" parent="1" source="FawlYmPph2QiOUmOqzMi-83" target="Y-POOmvSdZDfr7HTxGL3-16" edge="1">
          <mxGeometry relative="1" as="geometry">
            <mxPoint x="710" y="500" as="sourcePoint" />
            <mxPoint x="870" y="500" as="targetPoint" />
          </mxGeometry>
        </mxCell>
        <mxCell id="Y-POOmvSdZDfr7HTxGL3-24" value="Status" style="ellipse;whiteSpace=wrap;html=1;align=center;labelBackgroundColor=none;fillColor=#8AE6E6;" parent="1" vertex="1">
          <mxGeometry x="1060" y="250" width="100" height="40" as="geometry" />
        </mxCell>
        <mxCell id="Y-POOmvSdZDfr7HTxGL3-26" value="Certification ID" style="ellipse;whiteSpace=wrap;html=1;align=center;fontStyle=4;labelBackgroundColor=none;fillColor=#8AE6E6;" parent="1" vertex="1">
          <mxGeometry x="-180" y="200" width="100" height="40" as="geometry" />
        </mxCell>
        <mxCell id="Y-POOmvSdZDfr7HTxGL3-27" value="Module ID" style="ellipse;whiteSpace=wrap;html=1;align=center;fontStyle=4;labelBackgroundColor=none;fillColor=#8AE6E6;" parent="1" vertex="1">
          <mxGeometry x="200" y="410" width="100" height="40" as="geometry" />
        </mxCell>
        <mxCell id="Y-POOmvSdZDfr7HTxGL3-28" value="Module Name" style="ellipse;whiteSpace=wrap;html=1;align=center;labelBackgroundColor=none;fillColor=#8AE6E6;" parent="1" vertex="1">
          <mxGeometry x="130" y="450" width="100" height="40" as="geometry" />
        </mxCell>
        <mxCell id="Y-POOmvSdZDfr7HTxGL3-30" value="Certification Name" style="ellipse;whiteSpace=wrap;html=1;align=center;rotation=5;labelBackgroundColor=none;fillColor=#8AE6E6;" parent="1" vertex="1">
          <mxGeometry x="-250" y="250" width="100" height="40" as="geometry" />
        </mxCell>
        <mxCell id="Y-POOmvSdZDfr7HTxGL3-33" value="" style="endArrow=none;html=1;rounded=0;fontSize=12;startSize=8;endSize=8;curved=1;exitX=1;exitY=0.5;exitDx=0;exitDy=0;entryX=0;entryY=0.25;entryDx=0;entryDy=0;labelBackgroundColor=none;fontColor=default;" parent="1" source="Y-POOmvSdZDfr7HTxGL3-30" target="FawlYmPph2QiOUmOqzMi-7" edge="1">
          <mxGeometry relative="1" as="geometry">
            <mxPoint x="-530" y="130" as="sourcePoint" />
            <mxPoint x="-370" y="130" as="targetPoint" />
          </mxGeometry>
        </mxCell>
        <mxCell id="Y-POOmvSdZDfr7HTxGL3-34" value="" style="endArrow=none;html=1;rounded=0;fontSize=12;startSize=8;endSize=8;curved=1;exitX=1;exitY=1;exitDx=0;exitDy=0;entryX=0.2;entryY=0;entryDx=0;entryDy=0;entryPerimeter=0;labelBackgroundColor=none;fontColor=default;" parent="1" source="Y-POOmvSdZDfr7HTxGL3-26" target="FawlYmPph2QiOUmOqzMi-7" edge="1">
          <mxGeometry relative="1" as="geometry">
            <mxPoint x="-200.29999999999995" y="80" as="sourcePoint" />
            <mxPoint x="-370" y="130" as="targetPoint" />
          </mxGeometry>
        </mxCell>
        <mxCell id="Y-POOmvSdZDfr7HTxGL3-35" value="" style="endArrow=none;html=1;rounded=0;fontSize=12;startSize=8;endSize=8;curved=1;entryX=0.1;entryY=0;entryDx=0;entryDy=0;exitX=1;exitY=1;exitDx=0;exitDy=0;entryPerimeter=0;labelBackgroundColor=none;fontColor=default;" parent="1" source="Y-POOmvSdZDfr7HTxGL3-27" target="FawlYmPph2QiOUmOqzMi-25" edge="1">
          <mxGeometry relative="1" as="geometry">
            <mxPoint x="90" y="390" as="sourcePoint" />
            <mxPoint x="160" y="440" as="targetPoint" />
            <Array as="points">
              <mxPoint x="300" y="460" />
            </Array>
          </mxGeometry>
        </mxCell>
        <mxCell id="Y-POOmvSdZDfr7HTxGL3-37" value="Lesson ID" style="ellipse;whiteSpace=wrap;html=1;align=center;fontStyle=4;labelBackgroundColor=none;fillColor=#8AE6E6;" parent="1" vertex="1">
          <mxGeometry x="150" y="710" width="100" height="40" as="geometry" />
        </mxCell>
        <mxCell id="Y-POOmvSdZDfr7HTxGL3-39" value="Lessan Name" style="ellipse;whiteSpace=wrap;html=1;align=center;labelBackgroundColor=none;fillColor=#8AE6E6;" parent="1" vertex="1">
          <mxGeometry x="190" y="830" width="100" height="40" as="geometry" />
        </mxCell>
        <mxCell id="Y-POOmvSdZDfr7HTxGL3-41" value="" style="endArrow=none;html=1;rounded=0;fontSize=12;startSize=8;endSize=8;curved=1;exitX=1;exitY=0;exitDx=0;exitDy=0;entryX=0.118;entryY=1.118;entryDx=0;entryDy=0;entryPerimeter=0;labelBackgroundColor=none;fontColor=default;" parent="1" source="Y-POOmvSdZDfr7HTxGL3-39" target="FawlYmPph2QiOUmOqzMi-68" edge="1">
          <mxGeometry relative="1" as="geometry">
            <mxPoint x="350" y="650" as="sourcePoint" />
            <mxPoint x="510" y="650" as="targetPoint" />
          </mxGeometry>
        </mxCell>
        <mxCell id="abX1jXWTfdIjCExrMVEX-2" value="" style="endArrow=none;html=1;rounded=0;exitX=0.5;exitY=1;exitDx=0;exitDy=0;entryX=1;entryY=0.25;entryDx=0;entryDy=0;labelBackgroundColor=none;fontColor=default;" parent="1" source="FawlYmPph2QiOUmOqzMi-40" target="GdIdlJBfRTEdmfWBy-k_-1" edge="1">
          <mxGeometry relative="1" as="geometry">
            <mxPoint x="408" y="30" as="sourcePoint" />
            <mxPoint x="290" y="-50" as="targetPoint" />
          </mxGeometry>
        </mxCell>
        <mxCell id="FawlYmPph2QiOUmOqzMi-52" value="Course Name" style="ellipse;whiteSpace=wrap;html=1;align=center;labelBackgroundColor=none;fillColor=#8AE6E6;" parent="1" vertex="1">
          <mxGeometry x="240" y="40" width="100" height="40" as="geometry" />
        </mxCell>
        <mxCell id="FawlYmPph2QiOUmOqzMi-54" value="&lt;span style=&quot;border-bottom: 1px dotted&quot;&gt;Certification ID&lt;/span&gt;" style="ellipse;whiteSpace=wrap;html=1;align=center;labelBackgroundColor=none;fillColor=#8AE6E6;" parent="1" vertex="1">
          <mxGeometry x="180" y="150" width="100" height="40" as="geometry" />
        </mxCell>
        <mxCell id="abX1jXWTfdIjCExrMVEX-7" value="" style="endArrow=none;html=1;rounded=0;entryX=0.387;entryY=0.99;entryDx=0;entryDy=0;exitX=0.618;exitY=-0.054;exitDx=0;exitDy=0;exitPerimeter=0;entryPerimeter=0;labelBackgroundColor=none;fontColor=default;" parent="1" source="GdIdlJBfRTEdmfWBy-k_-1" target="FawlYmPph2QiOUmOqzMi-49" edge="1">
          <mxGeometry relative="1" as="geometry">
            <mxPoint x="380" y="160" as="sourcePoint" />
            <mxPoint x="540" y="160" as="targetPoint" />
          </mxGeometry>
        </mxCell>
        <mxCell id="abX1jXWTfdIjCExrMVEX-22" value="" style="endArrow=none;html=1;rounded=0;entryX=0.245;entryY=0.982;entryDx=0;entryDy=0;entryPerimeter=0;exitX=0.75;exitY=0;exitDx=0;exitDy=0;labelBackgroundColor=none;fontColor=default;" parent="1" source="FawlYmPph2QiOUmOqzMi-78" target="BEvxx8lWXbpntKvArGnV-39" edge="1">
          <mxGeometry relative="1" as="geometry">
            <mxPoint x="880" y="-50" as="sourcePoint" />
            <mxPoint x="1040" y="-50" as="targetPoint" />
          </mxGeometry>
        </mxCell>
        <mxCell id="abX1jXWTfdIjCExrMVEX-27" value="" style="endArrow=none;html=1;rounded=0;entryX=0;entryY=0.5;entryDx=0;entryDy=0;exitX=1.019;exitY=0.588;exitDx=0;exitDy=0;exitPerimeter=0;labelBackgroundColor=none;fontColor=default;" parent="1" source="FawlYmPph2QiOUmOqzMi-83" target="Y-POOmvSdZDfr7HTxGL3-24" edge="1">
          <mxGeometry relative="1" as="geometry">
            <mxPoint x="910" y="410" as="sourcePoint" />
            <mxPoint x="1070" y="410" as="targetPoint" />
          </mxGeometry>
        </mxCell>
        <mxCell id="abX1jXWTfdIjCExrMVEX-29" value="Description" style="ellipse;whiteSpace=wrap;html=1;align=center;labelBackgroundColor=none;fillColor=#8AE6E6;" parent="1" vertex="1">
          <mxGeometry x="120" y="500" width="100" height="40" as="geometry" />
        </mxCell>
        <mxCell id="abX1jXWTfdIjCExrMVEX-30" value="&lt;span style=&quot;border-bottom: 1px dotted&quot;&gt;Course ID&lt;/span&gt;" style="ellipse;whiteSpace=wrap;html=1;align=center;labelBackgroundColor=none;fillColor=#8AE6E6;" parent="1" vertex="1">
          <mxGeometry x="180" y="550" width="100" height="40" as="geometry" />
        </mxCell>
        <mxCell id="abX1jXWTfdIjCExrMVEX-31" value="" style="endArrow=none;html=1;rounded=0;exitX=0.978;exitY=0.654;exitDx=0;exitDy=0;exitPerimeter=0;entryX=0;entryY=0.25;entryDx=0;entryDy=0;labelBackgroundColor=none;fontColor=default;" parent="1" source="Y-POOmvSdZDfr7HTxGL3-28" target="FawlYmPph2QiOUmOqzMi-25" edge="1">
          <mxGeometry relative="1" as="geometry">
            <mxPoint x="300" y="530" as="sourcePoint" />
            <mxPoint x="310" y="510" as="targetPoint" />
          </mxGeometry>
        </mxCell>
        <mxCell id="abX1jXWTfdIjCExrMVEX-32" value="" style="endArrow=none;html=1;rounded=0;exitX=1;exitY=0.5;exitDx=0;exitDy=0;entryX=0;entryY=0.5;entryDx=0;entryDy=0;labelBackgroundColor=none;fontColor=default;" parent="1" source="abX1jXWTfdIjCExrMVEX-29" target="FawlYmPph2QiOUmOqzMi-25" edge="1">
          <mxGeometry relative="1" as="geometry">
            <mxPoint x="300" y="530" as="sourcePoint" />
            <mxPoint x="460" y="530" as="targetPoint" />
          </mxGeometry>
        </mxCell>
        <mxCell id="abX1jXWTfdIjCExrMVEX-33" value="" style="endArrow=none;html=1;rounded=0;exitX=0.4;exitY=0;exitDx=0;exitDy=0;exitPerimeter=0;entryX=0;entryY=0.75;entryDx=0;entryDy=0;labelBackgroundColor=none;fontColor=default;" parent="1" source="abX1jXWTfdIjCExrMVEX-30" target="FawlYmPph2QiOUmOqzMi-25" edge="1">
          <mxGeometry relative="1" as="geometry">
            <mxPoint x="300" y="530" as="sourcePoint" />
            <mxPoint x="460" y="530" as="targetPoint" />
          </mxGeometry>
        </mxCell>
        <mxCell id="abX1jXWTfdIjCExrMVEX-34" value="Content" style="ellipse;whiteSpace=wrap;html=1;align=center;labelBackgroundColor=none;fillColor=#8AE6E6;" parent="1" vertex="1">
          <mxGeometry x="300" y="850" width="100" height="40" as="geometry" />
        </mxCell>
        <mxCell id="abX1jXWTfdIjCExrMVEX-35" value="Duration" style="ellipse;whiteSpace=wrap;html=1;align=center;labelBackgroundColor=none;fillColor=#8AE6E6;" parent="1" vertex="1">
          <mxGeometry x="370" y="800" width="100" height="40" as="geometry" />
        </mxCell>
        <mxCell id="abX1jXWTfdIjCExrMVEX-36" value="Module ID" style="ellipse;whiteSpace=wrap;html=1;align=center;fontStyle=4;labelBackgroundColor=none;fillColor=#8AE6E6;" parent="1" vertex="1">
          <mxGeometry x="140" y="780" width="100" height="40" as="geometry" />
        </mxCell>
        <mxCell id="abX1jXWTfdIjCExrMVEX-39" value="" style="endArrow=none;html=1;rounded=0;exitX=1;exitY=0.5;exitDx=0;exitDy=0;entryX=0;entryY=0.5;entryDx=0;entryDy=0;labelBackgroundColor=none;fontColor=default;" parent="1" source="Y-POOmvSdZDfr7HTxGL3-37" target="FawlYmPph2QiOUmOqzMi-68" edge="1">
          <mxGeometry relative="1" as="geometry">
            <mxPoint x="230" y="720" as="sourcePoint" />
            <mxPoint x="390" y="720" as="targetPoint" />
          </mxGeometry>
        </mxCell>
        <mxCell id="abX1jXWTfdIjCExrMVEX-40" value="" style="endArrow=none;html=1;rounded=0;exitX=0.955;exitY=0.186;exitDx=0;exitDy=0;exitPerimeter=0;entryX=0;entryY=0.75;entryDx=0;entryDy=0;labelBackgroundColor=none;fontColor=default;" parent="1" source="abX1jXWTfdIjCExrMVEX-36" target="FawlYmPph2QiOUmOqzMi-68" edge="1">
          <mxGeometry relative="1" as="geometry">
            <mxPoint x="230" y="720" as="sourcePoint" />
            <mxPoint x="390" y="720" as="targetPoint" />
          </mxGeometry>
        </mxCell>
        <mxCell id="abX1jXWTfdIjCExrMVEX-41" value="" style="endArrow=none;html=1;rounded=0;exitX=0.5;exitY=0;exitDx=0;exitDy=0;entryX=0.364;entryY=1.005;entryDx=0;entryDy=0;entryPerimeter=0;labelBackgroundColor=none;fontColor=default;" parent="1" source="abX1jXWTfdIjCExrMVEX-34" target="FawlYmPph2QiOUmOqzMi-68" edge="1">
          <mxGeometry relative="1" as="geometry">
            <mxPoint x="230" y="720" as="sourcePoint" />
            <mxPoint x="390" y="720" as="targetPoint" />
          </mxGeometry>
        </mxCell>
        <mxCell id="abX1jXWTfdIjCExrMVEX-42" value="" style="endArrow=none;html=1;rounded=0;exitX=0.609;exitY=1.005;exitDx=0;exitDy=0;exitPerimeter=0;labelBackgroundColor=none;fontColor=default;" parent="1" source="FawlYmPph2QiOUmOqzMi-68" target="abX1jXWTfdIjCExrMVEX-35" edge="1">
          <mxGeometry relative="1" as="geometry">
            <mxPoint x="230" y="720" as="sourcePoint" />
            <mxPoint x="390" y="720" as="targetPoint" />
          </mxGeometry>
        </mxCell>
        <mxCell id="abX1jXWTfdIjCExrMVEX-43" value="Trainer ID" style="ellipse;whiteSpace=wrap;html=1;align=center;fontStyle=4;labelBackgroundColor=none;fillColor=#8AE6E6;" parent="1" vertex="1">
          <mxGeometry x="770" y="500" width="100" height="40" as="geometry" />
        </mxCell>
        <mxCell id="abX1jXWTfdIjCExrMVEX-44" value="&lt;span style=&quot;border-bottom: 1px dotted&quot;&gt;Department ID&lt;/span&gt;" style="ellipse;whiteSpace=wrap;html=1;align=center;labelBackgroundColor=none;fillColor=#8AE6E6;" parent="1" vertex="1">
          <mxGeometry x="860" y="530" width="100" height="40" as="geometry" />
        </mxCell>
        <mxCell id="abX1jXWTfdIjCExrMVEX-45" value="Name" style="ellipse;whiteSpace=wrap;html=1;align=center;labelBackgroundColor=none;fillColor=#8AE6E6;" parent="1" vertex="1">
          <mxGeometry x="900" y="580" width="100" height="40" as="geometry" />
        </mxCell>
        <mxCell id="abX1jXWTfdIjCExrMVEX-46" value="Contact Info" style="ellipse;whiteSpace=wrap;html=1;align=center;labelBackgroundColor=none;fillColor=#8AE6E6;" parent="1" vertex="1">
          <mxGeometry x="790" y="670" width="100" height="40" as="geometry" />
        </mxCell>
        <mxCell id="abX1jXWTfdIjCExrMVEX-47" value="Expertise" style="ellipse;whiteSpace=wrap;html=1;align=center;labelBackgroundColor=none;fillColor=#8AE6E6;" parent="1" vertex="1">
          <mxGeometry x="870" y="630" width="100" height="40" as="geometry" />
        </mxCell>
        <mxCell id="abX1jXWTfdIjCExrMVEX-50" value="" style="endArrow=none;html=1;rounded=0;entryX=0.207;entryY=0.837;entryDx=0;entryDy=0;entryPerimeter=0;exitX=1;exitY=0.25;exitDx=0;exitDy=0;labelBackgroundColor=none;fontColor=default;" parent="1" source="FawlYmPph2QiOUmOqzMi-89" target="abX1jXWTfdIjCExrMVEX-44" edge="1">
          <mxGeometry relative="1" as="geometry">
            <mxPoint x="660" y="650" as="sourcePoint" />
            <mxPoint x="820" y="650" as="targetPoint" />
          </mxGeometry>
        </mxCell>
        <mxCell id="abX1jXWTfdIjCExrMVEX-51" value="" style="endArrow=none;html=1;rounded=0;entryX=-0.02;entryY=0.37;entryDx=0;entryDy=0;entryPerimeter=0;exitX=1;exitY=0.5;exitDx=0;exitDy=0;labelBackgroundColor=none;fontColor=default;" parent="1" source="FawlYmPph2QiOUmOqzMi-89" target="abX1jXWTfdIjCExrMVEX-45" edge="1">
          <mxGeometry relative="1" as="geometry">
            <mxPoint x="660" y="650" as="sourcePoint" />
            <mxPoint x="820" y="650" as="targetPoint" />
          </mxGeometry>
        </mxCell>
        <mxCell id="abX1jXWTfdIjCExrMVEX-52" value="" style="endArrow=none;html=1;rounded=0;entryX=-0.015;entryY=0.337;entryDx=0;entryDy=0;entryPerimeter=0;exitX=1;exitY=0.5;exitDx=0;exitDy=0;labelBackgroundColor=none;fontColor=default;" parent="1" source="FawlYmPph2QiOUmOqzMi-89" target="abX1jXWTfdIjCExrMVEX-47" edge="1">
          <mxGeometry relative="1" as="geometry">
            <mxPoint x="660" y="650" as="sourcePoint" />
            <mxPoint x="820" y="650" as="targetPoint" />
          </mxGeometry>
        </mxCell>
        <mxCell id="abX1jXWTfdIjCExrMVEX-53" value="" style="endArrow=none;html=1;rounded=0;entryX=0.5;entryY=0;entryDx=0;entryDy=0;exitX=1;exitY=0.75;exitDx=0;exitDy=0;labelBackgroundColor=none;fontColor=default;" parent="1" source="FawlYmPph2QiOUmOqzMi-89" target="abX1jXWTfdIjCExrMVEX-46" edge="1">
          <mxGeometry relative="1" as="geometry">
            <mxPoint x="660" y="650" as="sourcePoint" />
            <mxPoint x="820" y="650" as="targetPoint" />
          </mxGeometry>
        </mxCell>
        <mxCell id="abX1jXWTfdIjCExrMVEX-54" value="" style="endArrow=none;html=1;rounded=0;entryX=0.602;entryY=1.087;entryDx=0;entryDy=0;entryPerimeter=0;labelBackgroundColor=none;fontColor=default;" parent="1" target="abX1jXWTfdIjCExrMVEX-43" edge="1">
          <mxGeometry relative="1" as="geometry">
            <mxPoint x="780" y="600" as="sourcePoint" />
            <mxPoint x="820" y="650" as="targetPoint" />
          </mxGeometry>
        </mxCell>
        <mxCell id="abX1jXWTfdIjCExrMVEX-60" value="&lt;span style=&quot;border-bottom: 1px dotted&quot;&gt;Course ID&lt;/span&gt;" style="ellipse;whiteSpace=wrap;html=1;align=center;labelBackgroundColor=none;fillColor=#8AE6E6;" parent="1" vertex="1">
          <mxGeometry x="-260" y="310" width="100" height="40" as="geometry" />
        </mxCell>
        <mxCell id="abX1jXWTfdIjCExrMVEX-61" value="" style="endArrow=none;html=1;rounded=0;entryX=0;entryY=0.75;entryDx=0;entryDy=0;labelBackgroundColor=none;fontColor=default;" parent="1" source="abX1jXWTfdIjCExrMVEX-60" target="FawlYmPph2QiOUmOqzMi-7" edge="1">
          <mxGeometry relative="1" as="geometry">
            <mxPoint x="-250" y="180" as="sourcePoint" />
            <mxPoint x="-90" y="180" as="targetPoint" />
          </mxGeometry>
        </mxCell>
        <mxCell id="abX1jXWTfdIjCExrMVEX-62" value="" style="endArrow=none;html=1;rounded=0;exitX=0.681;exitY=0.033;exitDx=0;exitDy=0;exitPerimeter=0;entryX=0.1;entryY=1;entryDx=0;entryDy=0;entryPerimeter=0;labelBackgroundColor=none;fontColor=default;" parent="1" source="abX1jXWTfdIjCExrMVEX-55" target="FawlYmPph2QiOUmOqzMi-7" edge="1">
          <mxGeometry relative="1" as="geometry">
            <mxPoint x="-250" y="180" as="sourcePoint" />
            <mxPoint x="-90" y="180" as="targetPoint" />
          </mxGeometry>
        </mxCell>
        <mxCell id="abX1jXWTfdIjCExrMVEX-67" value="" style="endArrow=none;html=1;rounded=0;entryX=0;entryY=1;entryDx=0;entryDy=0;exitX=1;exitY=0.5;exitDx=0;exitDy=0;labelBackgroundColor=none;fontColor=default;" parent="1" source="FawlYmPph2QiOUmOqzMi-3" target="GdIdlJBfRTEdmfWBy-k_-1" edge="1">
          <mxGeometry relative="1" as="geometry">
            <mxPoint x="210" y="360" as="sourcePoint" />
            <mxPoint x="210" y="130" as="targetPoint" />
          </mxGeometry>
        </mxCell>
        <mxCell id="abX1jXWTfdIjCExrMVEX-73" value="" style="endArrow=none;html=1;rounded=0;exitX=0.75;exitY=1;exitDx=0;exitDy=0;entryX=0.5;entryY=0;entryDx=0;entryDy=0;labelBackgroundColor=none;fontColor=default;" parent="1" source="FawlYmPph2QiOUmOqzMi-25" target="abX1jXWTfdIjCExrMVEX-74" edge="1">
          <mxGeometry relative="1" as="geometry">
            <mxPoint x="760" y="690" as="sourcePoint" />
            <mxPoint x="530" y="730" as="targetPoint" />
          </mxGeometry>
        </mxCell>
        <mxCell id="abX1jXWTfdIjCExrMVEX-74" value="Have" style="shape=rhombus;perimeter=rhombusPerimeter;whiteSpace=wrap;html=1;align=center;labelBackgroundColor=none;fillColor=#33FF99;" parent="1" vertex="1">
          <mxGeometry x="480" y="740" width="120" height="60" as="geometry" />
        </mxCell>
        <mxCell id="abX1jXWTfdIjCExrMVEX-75" value="Quiz" style="whiteSpace=wrap;html=1;align=center;labelBackgroundColor=none;fillColor=#FF66B3;" parent="1" vertex="1">
          <mxGeometry x="500" y="900" width="100" height="40" as="geometry" />
        </mxCell>
        <mxCell id="abX1jXWTfdIjCExrMVEX-76" value="" style="edgeStyle=entityRelationEdgeStyle;fontSize=12;html=1;endArrow=ERoneToMany;rounded=0;exitX=0.963;exitY=0.533;exitDx=0;exitDy=0;exitPerimeter=0;labelBackgroundColor=none;fontColor=default;" parent="1" source="abX1jXWTfdIjCExrMVEX-74" target="abX1jXWTfdIjCExrMVEX-75" edge="1">
          <mxGeometry width="100" height="100" relative="1" as="geometry">
            <mxPoint x="600" y="770" as="sourcePoint" />
            <mxPoint x="860" y="850" as="targetPoint" />
            <Array as="points">
              <mxPoint x="830" y="840" />
            </Array>
          </mxGeometry>
        </mxCell>
        <mxCell id="abX1jXWTfdIjCExrMVEX-77" value="Attribute" style="ellipse;whiteSpace=wrap;html=1;align=center;fontStyle=4;labelBackgroundColor=none;fillColor=#8AE6E6;" parent="1" vertex="1">
          <mxGeometry x="350" y="950" width="100" height="40" as="geometry" />
        </mxCell>
        <mxCell id="abX1jXWTfdIjCExrMVEX-78" value="Grade" style="whiteSpace=wrap;html=1;align=center;labelBackgroundColor=none;fillColor=#FF66B3;" parent="1" vertex="1">
          <mxGeometry x="1060" y="720" width="100" height="40" as="geometry" />
        </mxCell>
        <mxCell id="abX1jXWTfdIjCExrMVEX-79" value="&lt;span style=&quot;border-bottom: 1px dotted&quot;&gt;Attribute&lt;/span&gt;" style="ellipse;whiteSpace=wrap;html=1;align=center;labelBackgroundColor=none;fillColor=#8AE6E6;" parent="1" vertex="1">
          <mxGeometry x="350" y="1000" width="100" height="40" as="geometry" />
        </mxCell>
        <mxCell id="abX1jXWTfdIjCExrMVEX-80" value="Attribute" style="ellipse;whiteSpace=wrap;html=1;align=center;labelBackgroundColor=none;fillColor=#8AE6E6;" parent="1" vertex="1">
          <mxGeometry x="510" y="1050" width="100" height="40" as="geometry" />
        </mxCell>
        <mxCell id="abX1jXWTfdIjCExrMVEX-81" value="Attribute" style="ellipse;whiteSpace=wrap;html=1;align=center;labelBackgroundColor=none;fillColor=#8AE6E6;" parent="1" vertex="1">
          <mxGeometry x="550" y="1000" width="100" height="40" as="geometry" />
        </mxCell>
        <mxCell id="abX1jXWTfdIjCExrMVEX-82" value="Attribute" style="ellipse;whiteSpace=wrap;html=1;align=center;labelBackgroundColor=none;fillColor=#8AE6E6;" parent="1" vertex="1">
          <mxGeometry x="405" y="1050" width="100" height="40" as="geometry" />
        </mxCell>
        <mxCell id="abX1jXWTfdIjCExrMVEX-83" style="edgeStyle=orthogonalEdgeStyle;rounded=0;orthogonalLoop=1;jettySize=auto;html=1;exitX=0.5;exitY=1;exitDx=0;exitDy=0;labelBackgroundColor=none;fontColor=default;" parent="1" source="abX1jXWTfdIjCExrMVEX-82" target="abX1jXWTfdIjCExrMVEX-82" edge="1">
          <mxGeometry relative="1" as="geometry" />
        </mxCell>
        <mxCell id="abX1jXWTfdIjCExrMVEX-84" value="" style="endArrow=none;html=1;rounded=0;exitX=0.979;exitY=0.284;exitDx=0;exitDy=0;exitPerimeter=0;entryX=0;entryY=1;entryDx=0;entryDy=0;labelBackgroundColor=none;fontColor=default;" parent="1" source="abX1jXWTfdIjCExrMVEX-77" target="abX1jXWTfdIjCExrMVEX-75" edge="1">
          <mxGeometry relative="1" as="geometry">
            <mxPoint x="490" y="890" as="sourcePoint" />
            <mxPoint x="650" y="890" as="targetPoint" />
          </mxGeometry>
        </mxCell>
        <mxCell id="abX1jXWTfdIjCExrMVEX-85" value="" style="endArrow=none;html=1;rounded=0;exitX=1;exitY=0.5;exitDx=0;exitDy=0;entryX=0.115;entryY=1.034;entryDx=0;entryDy=0;entryPerimeter=0;labelBackgroundColor=none;fontColor=default;" parent="1" source="abX1jXWTfdIjCExrMVEX-79" target="abX1jXWTfdIjCExrMVEX-75" edge="1">
          <mxGeometry relative="1" as="geometry">
            <mxPoint x="490" y="890" as="sourcePoint" />
            <mxPoint x="650" y="890" as="targetPoint" />
          </mxGeometry>
        </mxCell>
        <mxCell id="abX1jXWTfdIjCExrMVEX-86" value="" style="endArrow=none;html=1;rounded=0;exitX=0.676;exitY=0.078;exitDx=0;exitDy=0;exitPerimeter=0;entryX=0.25;entryY=1;entryDx=0;entryDy=0;labelBackgroundColor=none;fontColor=default;" parent="1" source="abX1jXWTfdIjCExrMVEX-82" target="abX1jXWTfdIjCExrMVEX-75" edge="1">
          <mxGeometry relative="1" as="geometry">
            <mxPoint x="490" y="890" as="sourcePoint" />
            <mxPoint x="650" y="890" as="targetPoint" />
          </mxGeometry>
        </mxCell>
        <mxCell id="abX1jXWTfdIjCExrMVEX-87" value="" style="endArrow=none;html=1;rounded=0;entryX=0.309;entryY=0.078;entryDx=0;entryDy=0;entryPerimeter=0;exitX=0.362;exitY=1.004;exitDx=0;exitDy=0;exitPerimeter=0;labelBackgroundColor=none;fontColor=default;" parent="1" source="abX1jXWTfdIjCExrMVEX-75" target="abX1jXWTfdIjCExrMVEX-80" edge="1">
          <mxGeometry relative="1" as="geometry">
            <mxPoint x="490" y="890" as="sourcePoint" />
            <mxPoint x="650" y="890" as="targetPoint" />
          </mxGeometry>
        </mxCell>
        <mxCell id="abX1jXWTfdIjCExrMVEX-88" value="" style="endArrow=none;html=1;rounded=0;entryX=0.332;entryY=0.151;entryDx=0;entryDy=0;entryPerimeter=0;exitX=0.5;exitY=1;exitDx=0;exitDy=0;labelBackgroundColor=none;fontColor=default;" parent="1" source="abX1jXWTfdIjCExrMVEX-75" target="abX1jXWTfdIjCExrMVEX-81" edge="1">
          <mxGeometry relative="1" as="geometry">
            <mxPoint x="490" y="890" as="sourcePoint" />
            <mxPoint x="650" y="890" as="targetPoint" />
          </mxGeometry>
        </mxCell>
        <mxCell id="abX1jXWTfdIjCExrMVEX-89" value="Relationship" style="shape=rhombus;perimeter=rhombusPerimeter;whiteSpace=wrap;html=1;align=center;labelBackgroundColor=none;fillColor=#33FF99;" parent="1" vertex="1">
          <mxGeometry x="890" y="980" width="120" height="60" as="geometry" />
        </mxCell>
        <mxCell id="abX1jXWTfdIjCExrMVEX-90" value="" style="endArrow=none;html=1;rounded=0;entryX=0;entryY=0.5;entryDx=0;entryDy=0;exitX=1;exitY=0.75;exitDx=0;exitDy=0;labelBackgroundColor=none;fontColor=default;" parent="1" source="abX1jXWTfdIjCExrMVEX-75" target="abX1jXWTfdIjCExrMVEX-89" edge="1">
          <mxGeometry relative="1" as="geometry">
            <mxPoint x="490" y="890" as="sourcePoint" />
            <mxPoint x="790" y="960" as="targetPoint" />
          </mxGeometry>
        </mxCell>
        <mxCell id="abX1jXWTfdIjCExrMVEX-91" value="" style="edgeStyle=entityRelationEdgeStyle;fontSize=12;html=1;endArrow=ERoneToMany;rounded=0;exitX=1;exitY=0.5;exitDx=0;exitDy=0;entryX=0;entryY=0.5;entryDx=0;entryDy=0;labelBackgroundColor=none;fontColor=default;" parent="1" source="abX1jXWTfdIjCExrMVEX-89" target="abX1jXWTfdIjCExrMVEX-78" edge="1">
          <mxGeometry width="100" height="100" relative="1" as="geometry">
            <mxPoint x="920" y="910" as="sourcePoint" />
            <mxPoint x="1020" y="810" as="targetPoint" />
          </mxGeometry>
        </mxCell>
        <mxCell id="abX1jXWTfdIjCExrMVEX-99" value="Relationship" style="shape=rhombus;perimeter=rhombusPerimeter;whiteSpace=wrap;html=1;align=center;labelBackgroundColor=none;fillColor=#33FF99;" parent="1" vertex="1">
          <mxGeometry x="970" y="450" width="120" height="60" as="geometry" />
        </mxCell>
        <mxCell id="abX1jXWTfdIjCExrMVEX-100" value="" style="endArrow=none;html=1;rounded=0;exitX=0.5;exitY=0;exitDx=0;exitDy=0;entryX=0.891;entryY=1.074;entryDx=0;entryDy=0;entryPerimeter=0;labelBackgroundColor=none;fontColor=default;" parent="1" source="abX1jXWTfdIjCExrMVEX-99" target="FawlYmPph2QiOUmOqzMi-83" edge="1">
          <mxGeometry relative="1" as="geometry">
            <mxPoint x="880" y="480" as="sourcePoint" />
            <mxPoint x="1000" y="340" as="targetPoint" />
          </mxGeometry>
        </mxCell>
        <mxCell id="abX1jXWTfdIjCExrMVEX-103" value="" style="edgeStyle=entityRelationEdgeStyle;fontSize=12;html=1;endArrow=ERoneToMany;rounded=0;entryX=0;entryY=0;entryDx=0;entryDy=0;exitX=0.5;exitY=1;exitDx=0;exitDy=0;labelBackgroundColor=none;fontColor=default;" parent="1" source="abX1jXWTfdIjCExrMVEX-99" target="abX1jXWTfdIjCExrMVEX-78" edge="1">
          <mxGeometry width="100" height="100" relative="1" as="geometry">
            <mxPoint x="1090" y="480" as="sourcePoint" />
            <mxPoint x="1092.5" y="707.2399999999998" as="targetPoint" />
          </mxGeometry>
        </mxCell>
        <mxCell id="abX1jXWTfdIjCExrMVEX-104" style="edgeStyle=orthogonalEdgeStyle;rounded=0;orthogonalLoop=1;jettySize=auto;html=1;exitX=0.5;exitY=1;exitDx=0;exitDy=0;labelBackgroundColor=none;fontColor=default;" parent="1" source="abX1jXWTfdIjCExrMVEX-78" target="abX1jXWTfdIjCExrMVEX-78" edge="1">
          <mxGeometry relative="1" as="geometry" />
        </mxCell>
        <mxCell id="abX1jXWTfdIjCExrMVEX-105" value="Course ID" style="ellipse;whiteSpace=wrap;html=1;align=center;labelBackgroundColor=none;fillColor=#8AE6E6;" parent="1" vertex="1">
          <mxGeometry x="1200" y="340" width="100" height="40" as="geometry" />
        </mxCell>
        <mxCell id="abX1jXWTfdIjCExrMVEX-106" value="" style="endArrow=none;html=1;rounded=0;exitX=1;exitY=0.75;exitDx=0;exitDy=0;entryX=0;entryY=0.5;entryDx=0;entryDy=0;labelBackgroundColor=none;fontColor=default;" parent="1" source="FawlYmPph2QiOUmOqzMi-83" target="abX1jXWTfdIjCExrMVEX-105" edge="1">
          <mxGeometry relative="1" as="geometry">
            <mxPoint x="1110" y="310" as="sourcePoint" />
            <mxPoint x="1270" y="310" as="targetPoint" />
          </mxGeometry>
        </mxCell>
        <mxCell id="abX1jXWTfdIjCExrMVEX-108" value="&lt;span style=&quot;border-bottom: 1px dotted&quot;&gt;Quiz ID&lt;/span&gt;" style="ellipse;whiteSpace=wrap;html=1;align=center;labelBackgroundColor=none;fillColor=#8AE6E6;" parent="1" vertex="1">
          <mxGeometry x="1300" y="690" width="100" height="40" as="geometry" />
        </mxCell>
        <mxCell id="abX1jXWTfdIjCExrMVEX-109" value="&lt;span style=&quot;border-bottom: 1px dotted&quot;&gt;Employee ID&lt;/span&gt;" style="ellipse;whiteSpace=wrap;html=1;align=center;labelBackgroundColor=none;fillColor=#8AE6E6;" parent="1" vertex="1">
          <mxGeometry x="1250" y="640" width="100" height="40" as="geometry" />
        </mxCell>
        <mxCell id="abX1jXWTfdIjCExrMVEX-110" value="Grade ID" style="ellipse;whiteSpace=wrap;html=1;align=center;fontStyle=4;labelBackgroundColor=none;fillColor=#8AE6E6;" parent="1" vertex="1">
          <mxGeometry x="1140" y="620" width="100" height="40" as="geometry" />
        </mxCell>
        <mxCell id="abX1jXWTfdIjCExrMVEX-111" value="Total Marks" style="ellipse;whiteSpace=wrap;html=1;align=center;labelBackgroundColor=none;fillColor=#8AE6E6;" parent="1" vertex="1">
          <mxGeometry x="1250" y="790" width="100" height="40" as="geometry" />
        </mxCell>
        <mxCell id="abX1jXWTfdIjCExrMVEX-112" value="Marks Obtained" style="ellipse;whiteSpace=wrap;html=1;align=center;labelBackgroundColor=none;fillColor=#8AE6E6;" parent="1" vertex="1">
          <mxGeometry x="1280" y="740" width="100" height="40" as="geometry" />
        </mxCell>
        <mxCell id="abX1jXWTfdIjCExrMVEX-113" value="Grade Letter" style="ellipse;whiteSpace=wrap;html=1;align=center;labelBackgroundColor=none;fillColor=#8AE6E6;" parent="1" vertex="1">
          <mxGeometry x="1140" y="810" width="100" height="40" as="geometry" />
        </mxCell>
        <mxCell id="abX1jXWTfdIjCExrMVEX-115" style="edgeStyle=orthogonalEdgeStyle;rounded=0;orthogonalLoop=1;jettySize=auto;html=1;exitX=0.5;exitY=1;exitDx=0;exitDy=0;labelBackgroundColor=none;fontColor=default;" parent="1" source="abX1jXWTfdIjCExrMVEX-112" target="abX1jXWTfdIjCExrMVEX-112" edge="1">
          <mxGeometry relative="1" as="geometry" />
        </mxCell>
        <mxCell id="abX1jXWTfdIjCExrMVEX-116" value="" style="endArrow=none;html=1;rounded=0;exitX=1;exitY=0.5;exitDx=0;exitDy=0;entryX=0;entryY=0.5;entryDx=0;entryDy=0;labelBackgroundColor=none;fontColor=default;" parent="1" source="abX1jXWTfdIjCExrMVEX-78" target="abX1jXWTfdIjCExrMVEX-112" edge="1">
          <mxGeometry relative="1" as="geometry">
            <mxPoint x="1180" y="800" as="sourcePoint" />
            <mxPoint x="1340" y="800" as="targetPoint" />
          </mxGeometry>
        </mxCell>
        <mxCell id="abX1jXWTfdIjCExrMVEX-117" value="" style="endArrow=none;html=1;rounded=0;exitX=1;exitY=1;exitDx=0;exitDy=0;entryX=0.235;entryY=0.097;entryDx=0;entryDy=0;entryPerimeter=0;labelBackgroundColor=none;fontColor=default;" parent="1" source="abX1jXWTfdIjCExrMVEX-78" target="abX1jXWTfdIjCExrMVEX-111" edge="1">
          <mxGeometry relative="1" as="geometry">
            <mxPoint x="1180" y="800" as="sourcePoint" />
            <mxPoint x="1340" y="800" as="targetPoint" />
          </mxGeometry>
        </mxCell>
        <mxCell id="abX1jXWTfdIjCExrMVEX-118" value="" style="endArrow=none;html=1;rounded=0;exitX=1;exitY=0.25;exitDx=0;exitDy=0;entryX=0;entryY=0.5;entryDx=0;entryDy=0;labelBackgroundColor=none;fontColor=default;" parent="1" source="abX1jXWTfdIjCExrMVEX-78" target="abX1jXWTfdIjCExrMVEX-108" edge="1">
          <mxGeometry relative="1" as="geometry">
            <mxPoint x="1180" y="800" as="sourcePoint" />
            <mxPoint x="1340" y="800" as="targetPoint" />
          </mxGeometry>
        </mxCell>
        <mxCell id="abX1jXWTfdIjCExrMVEX-119" value="" style="endArrow=none;html=1;rounded=0;exitX=0.75;exitY=1;exitDx=0;exitDy=0;entryX=0.5;entryY=0;entryDx=0;entryDy=0;labelBackgroundColor=none;fontColor=default;" parent="1" source="abX1jXWTfdIjCExrMVEX-78" target="abX1jXWTfdIjCExrMVEX-113" edge="1">
          <mxGeometry relative="1" as="geometry">
            <mxPoint x="1180" y="800" as="sourcePoint" />
            <mxPoint x="1340" y="800" as="targetPoint" />
          </mxGeometry>
        </mxCell>
        <mxCell id="abX1jXWTfdIjCExrMVEX-120" value="" style="endArrow=none;html=1;rounded=0;entryX=0;entryY=1;entryDx=0;entryDy=0;exitX=1;exitY=0.25;exitDx=0;exitDy=0;labelBackgroundColor=none;fontColor=default;" parent="1" source="abX1jXWTfdIjCExrMVEX-78" target="abX1jXWTfdIjCExrMVEX-109" edge="1">
          <mxGeometry relative="1" as="geometry">
            <mxPoint x="1160" y="730" as="sourcePoint" />
            <mxPoint x="1340" y="800" as="targetPoint" />
          </mxGeometry>
        </mxCell>
        <mxCell id="abX1jXWTfdIjCExrMVEX-121" value="" style="endArrow=none;html=1;rounded=0;exitX=0.5;exitY=1;exitDx=0;exitDy=0;entryX=1;entryY=0;entryDx=0;entryDy=0;labelBackgroundColor=none;fontColor=default;" parent="1" source="abX1jXWTfdIjCExrMVEX-110" target="abX1jXWTfdIjCExrMVEX-78" edge="1">
          <mxGeometry relative="1" as="geometry">
            <mxPoint x="1180" y="800" as="sourcePoint" />
            <mxPoint x="1340" y="800" as="targetPoint" />
          </mxGeometry>
        </mxCell>
        <mxCell id="abX1jXWTfdIjCExrMVEX-122" value="&lt;span style=&quot;border-bottom: 1px dotted&quot;&gt;Module ID&lt;/span&gt;" style="ellipse;whiteSpace=wrap;html=1;align=center;labelBackgroundColor=none;fillColor=#8AE6E6;" parent="1" vertex="1">
          <mxGeometry x="900" y="800" width="100" height="40" as="geometry" />
        </mxCell>
        <mxCell id="abX1jXWTfdIjCExrMVEX-123" value="&lt;span style=&quot;border-bottom: 1px dotted&quot;&gt;Trainer ID&lt;/span&gt;" style="ellipse;whiteSpace=wrap;html=1;align=center;labelBackgroundColor=none;fillColor=#8AE6E6;" parent="1" vertex="1">
          <mxGeometry x="890" y="850" width="100" height="40" as="geometry" />
        </mxCell>
        <mxCell id="abX1jXWTfdIjCExrMVEX-124" value="Assessment ID" style="ellipse;whiteSpace=wrap;html=1;align=center;fontStyle=4;labelBackgroundColor=none;fillColor=#8AE6E6;" parent="1" vertex="1">
          <mxGeometry x="830" y="760" width="100" height="40" as="geometry" />
        </mxCell>
        <mxCell id="abX1jXWTfdIjCExrMVEX-125" value="Assessment Type" style="ellipse;whiteSpace=wrap;html=1;align=center;labelBackgroundColor=none;fillColor=#8AE6E6;" parent="1" vertex="1">
          <mxGeometry x="750" y="900" width="100" height="40" as="geometry" />
        </mxCell>
        <mxCell id="abX1jXWTfdIjCExrMVEX-126" value="Total Marks" style="ellipse;whiteSpace=wrap;html=1;align=center;labelBackgroundColor=none;fillColor=#8AE6E6;" parent="1" vertex="1">
          <mxGeometry x="860" y="900" width="100" height="40" as="geometry" />
        </mxCell>
        <mxCell id="abX1jXWTfdIjCExrMVEX-127" value="" style="endArrow=none;html=1;rounded=0;entryX=0;entryY=1;entryDx=0;entryDy=0;exitX=1;exitY=0.25;exitDx=0;exitDy=0;labelBackgroundColor=none;fontColor=default;" parent="1" source="BEvxx8lWXbpntKvArGnV-20" target="abX1jXWTfdIjCExrMVEX-124" edge="1">
          <mxGeometry relative="1" as="geometry">
            <mxPoint x="590" y="790" as="sourcePoint" />
            <mxPoint x="750" y="790" as="targetPoint" />
          </mxGeometry>
        </mxCell>
        <mxCell id="abX1jXWTfdIjCExrMVEX-128" value="" style="endArrow=none;html=1;rounded=0;entryX=0;entryY=0.5;entryDx=0;entryDy=0;exitX=1;exitY=0.5;exitDx=0;exitDy=0;labelBackgroundColor=none;fontColor=default;" parent="1" source="BEvxx8lWXbpntKvArGnV-20" target="abX1jXWTfdIjCExrMVEX-122" edge="1">
          <mxGeometry relative="1" as="geometry">
            <mxPoint x="590" y="790" as="sourcePoint" />
            <mxPoint x="750" y="790" as="targetPoint" />
          </mxGeometry>
        </mxCell>
        <mxCell id="abX1jXWTfdIjCExrMVEX-129" value="" style="endArrow=none;html=1;rounded=0;entryX=0;entryY=0.5;entryDx=0;entryDy=0;exitX=1;exitY=0.75;exitDx=0;exitDy=0;labelBackgroundColor=none;fontColor=default;" parent="1" source="BEvxx8lWXbpntKvArGnV-20" target="abX1jXWTfdIjCExrMVEX-123" edge="1">
          <mxGeometry relative="1" as="geometry">
            <mxPoint x="590" y="790" as="sourcePoint" />
            <mxPoint x="750" y="790" as="targetPoint" />
          </mxGeometry>
        </mxCell>
        <mxCell id="abX1jXWTfdIjCExrMVEX-130" value="" style="endArrow=none;html=1;rounded=0;entryX=0;entryY=0;entryDx=0;entryDy=0;exitX=1;exitY=0.75;exitDx=0;exitDy=0;labelBackgroundColor=none;fontColor=default;" parent="1" source="BEvxx8lWXbpntKvArGnV-20" target="abX1jXWTfdIjCExrMVEX-126" edge="1">
          <mxGeometry relative="1" as="geometry">
            <mxPoint x="590" y="790" as="sourcePoint" />
            <mxPoint x="750" y="790" as="targetPoint" />
          </mxGeometry>
        </mxCell>
        <mxCell id="abX1jXWTfdIjCExrMVEX-131" value="" style="endArrow=none;html=1;rounded=0;entryX=0.5;entryY=0;entryDx=0;entryDy=0;exitX=0.75;exitY=1;exitDx=0;exitDy=0;labelBackgroundColor=none;fontColor=default;" parent="1" source="BEvxx8lWXbpntKvArGnV-20" target="abX1jXWTfdIjCExrMVEX-125" edge="1">
          <mxGeometry relative="1" as="geometry">
            <mxPoint x="590" y="790" as="sourcePoint" />
            <mxPoint x="750" y="790" as="targetPoint" />
          </mxGeometry>
        </mxCell>
        <mxCell id="abX1jXWTfdIjCExrMVEX-133" value="Notification" style="whiteSpace=wrap;html=1;align=center;labelBackgroundColor=none;fillColor=#FF66B3;" parent="1" vertex="1">
          <mxGeometry x="1345" y="-200" width="110" height="40" as="geometry" />
        </mxCell>
        <mxCell id="abX1jXWTfdIjCExrMVEX-134" value="Tracks" style="shape=rhombus;perimeter=rhombusPerimeter;whiteSpace=wrap;html=1;align=center;labelBackgroundColor=none;fillColor=#33FF99;" parent="1" vertex="1">
          <mxGeometry x="930" y="-240" width="130" height="90" as="geometry" />
        </mxCell>
        <mxCell id="abX1jXWTfdIjCExrMVEX-135" value="Sent" style="shape=rhombus;perimeter=rhombusPerimeter;whiteSpace=wrap;html=1;align=center;labelBackgroundColor=none;fillColor=#33FF99;" parent="1" vertex="1">
          <mxGeometry x="1340" y="-90" width="120" height="60" as="geometry" />
        </mxCell>
        <mxCell id="abX1jXWTfdIjCExrMVEX-140" value="" style="fontSize=12;html=1;endArrow=ERoneToMany;rounded=0;entryX=1;entryY=0.75;entryDx=0;entryDy=0;exitX=0;exitY=0.5;exitDx=0;exitDy=0;labelBackgroundColor=none;fontColor=default;" parent="1" source="abX1jXWTfdIjCExrMVEX-142" target="FawlYmPph2QiOUmOqzMi-83" edge="1">
          <mxGeometry width="100" height="100" relative="1" as="geometry">
            <mxPoint x="1340" y="330" as="sourcePoint" />
            <mxPoint x="1320" y="330" as="targetPoint" />
          </mxGeometry>
        </mxCell>
        <mxCell id="abX1jXWTfdIjCExrMVEX-142" value="Enroll" style="shape=rhombus;perimeter=rhombusPerimeter;whiteSpace=wrap;html=1;align=center;labelBackgroundColor=none;fillColor=#33FF99;" parent="1" vertex="1">
          <mxGeometry x="1350" y="300" width="120" height="60" as="geometry" />
        </mxCell>
        <mxCell id="abX1jXWTfdIjCExrMVEX-143" value="" style="endArrow=none;html=1;rounded=0;entryX=0.25;entryY=1;entryDx=0;entryDy=0;exitX=0.5;exitY=0;exitDx=0;exitDy=0;labelBackgroundColor=none;fontColor=default;" parent="1" source="abX1jXWTfdIjCExrMVEX-142" target="FawlYmPph2QiOUmOqzMi-103" edge="1">
          <mxGeometry relative="1" as="geometry">
            <mxPoint x="1240" y="270" as="sourcePoint" />
            <mxPoint x="1400" y="270" as="targetPoint" />
          </mxGeometry>
        </mxCell>
        <mxCell id="abX1jXWTfdIjCExrMVEX-146" value="" style="endArrow=none;html=1;rounded=0;entryX=0.5;entryY=1;entryDx=0;entryDy=0;exitX=0.5;exitY=0;exitDx=0;exitDy=0;labelBackgroundColor=none;fontColor=default;" parent="1" source="abX1jXWTfdIjCExrMVEX-135" target="abX1jXWTfdIjCExrMVEX-133" edge="1">
          <mxGeometry relative="1" as="geometry">
            <mxPoint x="1210" y="-50" as="sourcePoint" />
            <mxPoint x="1370" y="-50" as="targetPoint" />
          </mxGeometry>
        </mxCell>
        <mxCell id="abX1jXWTfdIjCExrMVEX-148" value="" style="endArrow=none;html=1;rounded=0;exitX=1;exitY=0;exitDx=0;exitDy=0;entryX=0;entryY=0.5;entryDx=0;entryDy=0;labelBackgroundColor=none;fontColor=default;" parent="1" source="FawlYmPph2QiOUmOqzMi-28" target="abX1jXWTfdIjCExrMVEX-134" edge="1">
          <mxGeometry relative="1" as="geometry">
            <mxPoint x="1050" y="-90" as="sourcePoint" />
            <mxPoint x="1210" y="-90" as="targetPoint" />
          </mxGeometry>
        </mxCell>
        <mxCell id="abX1jXWTfdIjCExrMVEX-149" value="" style="fontSize=12;html=1;endArrow=ERoneToMany;rounded=0;elbow=vertical;entryX=0;entryY=0;entryDx=0;entryDy=0;exitX=1;exitY=0.5;exitDx=0;exitDy=0;labelBackgroundColor=none;fontColor=default;" parent="1" source="abX1jXWTfdIjCExrMVEX-134" target="FawlYmPph2QiOUmOqzMi-103" edge="1">
          <mxGeometry width="100" height="100" relative="1" as="geometry">
            <mxPoint x="1040" y="-250" as="sourcePoint" />
            <mxPoint x="1407" y="80" as="targetPoint" />
          </mxGeometry>
        </mxCell>
        <mxCell id="abX1jXWTfdIjCExrMVEX-154" value="Notification ID" style="ellipse;whiteSpace=wrap;html=1;align=center;fontStyle=4;labelBackgroundColor=none;fillColor=#8AE6E6;" parent="1" vertex="1">
          <mxGeometry x="1240" y="-290" width="100" height="40" as="geometry" />
        </mxCell>
        <mxCell id="abX1jXWTfdIjCExrMVEX-155" value="Date" style="ellipse;whiteSpace=wrap;html=1;align=center;labelBackgroundColor=none;fillColor=#8AE6E6;" parent="1" vertex="1">
          <mxGeometry x="1440" y="-340" width="100" height="40" as="geometry" />
        </mxCell>
        <mxCell id="abX1jXWTfdIjCExrMVEX-158" value="&lt;span style=&quot;border-bottom: 1px dotted&quot;&gt;Recipient ID&lt;/span&gt;" style="ellipse;whiteSpace=wrap;html=1;align=center;labelBackgroundColor=none;fillColor=#8AE6E6;" parent="1" vertex="1">
          <mxGeometry x="1310" y="-340" width="100" height="40" as="geometry" />
        </mxCell>
        <mxCell id="abX1jXWTfdIjCExrMVEX-159" value="Status" style="ellipse;whiteSpace=wrap;html=1;align=center;labelBackgroundColor=none;fillColor=#8AE6E6;" parent="1" vertex="1">
          <mxGeometry x="1480" y="-280" width="100" height="40" as="geometry" />
        </mxCell>
        <mxCell id="abX1jXWTfdIjCExrMVEX-162" value="" style="endArrow=none;html=1;rounded=0;entryX=0.25;entryY=0;entryDx=0;entryDy=0;exitX=1;exitY=1;exitDx=0;exitDy=0;labelBackgroundColor=none;fontColor=default;" parent="1" source="abX1jXWTfdIjCExrMVEX-154" target="abX1jXWTfdIjCExrMVEX-133" edge="1">
          <mxGeometry relative="1" as="geometry">
            <mxPoint x="1070" y="-270" as="sourcePoint" />
            <mxPoint x="1230" y="-270" as="targetPoint" />
          </mxGeometry>
        </mxCell>
        <mxCell id="abX1jXWTfdIjCExrMVEX-163" value="" style="endArrow=none;html=1;rounded=0;entryX=0.5;entryY=0;entryDx=0;entryDy=0;exitX=0.587;exitY=0.947;exitDx=0;exitDy=0;exitPerimeter=0;labelBackgroundColor=none;fontColor=default;" parent="1" source="abX1jXWTfdIjCExrMVEX-158" target="abX1jXWTfdIjCExrMVEX-133" edge="1">
          <mxGeometry relative="1" as="geometry">
            <mxPoint x="1070" y="-270" as="sourcePoint" />
            <mxPoint x="1230" y="-270" as="targetPoint" />
          </mxGeometry>
        </mxCell>
        <mxCell id="abX1jXWTfdIjCExrMVEX-164" value="" style="endArrow=none;html=1;rounded=0;entryX=0.75;entryY=0;entryDx=0;entryDy=0;exitX=0;exitY=1;exitDx=0;exitDy=0;labelBackgroundColor=none;fontColor=default;" parent="1" source="abX1jXWTfdIjCExrMVEX-155" target="abX1jXWTfdIjCExrMVEX-133" edge="1">
          <mxGeometry relative="1" as="geometry">
            <mxPoint x="1070" y="-270" as="sourcePoint" />
            <mxPoint x="1230" y="-270" as="targetPoint" />
          </mxGeometry>
        </mxCell>
        <mxCell id="abX1jXWTfdIjCExrMVEX-165" value="" style="endArrow=none;html=1;rounded=0;entryX=0.861;entryY=0.033;entryDx=0;entryDy=0;exitX=0;exitY=0.5;exitDx=0;exitDy=0;entryPerimeter=0;labelBackgroundColor=none;fontColor=default;" parent="1" source="abX1jXWTfdIjCExrMVEX-159" target="abX1jXWTfdIjCExrMVEX-133" edge="1">
          <mxGeometry relative="1" as="geometry">
            <mxPoint x="1070" y="-270" as="sourcePoint" />
            <mxPoint x="1230" y="-270" as="targetPoint" />
          </mxGeometry>
        </mxCell>
        <mxCell id="abX1jXWTfdIjCExrMVEX-168" value="" style="fontSize=12;html=1;endArrow=ERoneToMany;rounded=0;exitX=0.5;exitY=1;exitDx=0;exitDy=0;labelBackgroundColor=none;fontColor=default;" parent="1" source="abX1jXWTfdIjCExrMVEX-135" edge="1">
          <mxGeometry width="100" height="100" relative="1" as="geometry">
            <mxPoint x="1730" y="-60" as="sourcePoint" />
            <mxPoint x="1400" y="110" as="targetPoint" />
          </mxGeometry>
        </mxCell>
        <UserObject label="&lt;b&gt;&lt;font style=&quot;font-size: 72px;&quot;&gt;LEARNING MANAGEMENT SYSTEM&lt;/font&gt;&lt;/b&gt;" treeRoot="1" id="kHl7JDKwt8URDfsG_ke6-1">
          <mxCell style="whiteSpace=wrap;html=1;align=center;treeFolding=1;treeMoving=1;newEdgeStyle={&quot;edgeStyle&quot;:&quot;elbowEdgeStyle&quot;,&quot;startArrow&quot;:&quot;none&quot;,&quot;endArrow&quot;:&quot;none&quot;};fillColor=#FFCCCC;strokeColor=#FFFFFF;" vertex="1" parent="1">
            <mxGeometry x="-10" y="-600" width="1420" height="60" as="geometry" />
          </mxCell>
        </UserObject>
      </root>
    </mxGraphModel>
  </diagram>
</mxfile>
